<?xml version="1.0" standalone="no"?>
<!DOCTYPE svg PUBLIC "-//W3C//DTD SVG 1.1//EN" "http://www.w3.org/Graphics/SVG/1.1/DTD/svg11.dtd" >
<!--
2013-9-30: Created.
-->
<svg>
<metadata>
Created by iconfont
</metadata>
<defs>

<font id="iconfont" horiz-adv-x="1024" >
  <font-face
    font-family="iconfont"
    font-weight="500"
    font-stretch="normal"
    units-per-em="1024"
    ascent="896"
    descent="-128"
  />
    <missing-glyph />
    
    <glyph glyph-name="jiantou4" unicode="&#59471;" d="M444.081633 206.367347c-5.22449 0-10.44898 2.089796-14.628572 6.269388-8.359184 8.359184-8.359184 21.420408 0 29.779592l156.734694 156.734693c8.359184 8.359184 21.420408 8.359184 29.779592 0 8.359184-8.359184 8.359184-21.420408 0-29.779591l-156.734694-156.734694c-4.702041-4.179592-9.926531-6.269388-15.15102-6.269388zM600.816327 363.102041c-5.22449 0-10.44898 2.089796-14.628572 6.269388l-156.734694 156.734693c-8.359184 8.359184-8.359184 21.420408 0 29.779592 8.359184 8.359184 21.420408 8.359184 29.779592 0l156.734694-156.734694c8.359184-8.359184 8.359184-21.420408 0-29.779591-4.702041-4.179592-9.926531-6.269388-15.15102-6.269388zM512-33.959184c-230.4 0-417.959184 187.559184-417.959184 417.959184s187.559184 417.959184 417.959184 417.959184 417.959184-187.559184 417.959184-417.959184-187.559184-417.959184-417.959184-417.959184z m0 794.122449c-207.412245 0-376.163265-168.75102-376.163265-376.163265s168.75102-376.163265 376.163265-376.163265 376.163265 168.75102 376.163265 376.163265-168.75102 376.163265-376.163265 376.163265z"  horiz-adv-x="1024" />

    
    <glyph glyph-name="jianhao2" unicode="&#59166;" d="M928 352H96c-19.2 0-32 12.8-32 32s12.8 32 32 32h832c19.2 0 32-12.8 32-32s-12.8-32-32-32z"  horiz-adv-x="1024" />

    
    <glyph glyph-name="fuwu" unicode="&#58944;" d="M512.7-74.2c-61.9 0-121.9 12.1-178.4 36-54.6 23.1-103.6 56.1-145.7 98.2-42.1 42.1-75.1 91.1-98.2 145.7-23.9 56.5-36 116.5-36 178.4s12.1 121.9 36 178.4c23.1 54.6 56.1 103.6 98.2 145.7 42.1 42.1 91.1 75.1 145.7 98.2 56.5 23.9 116.5 36 178.4 36s121.9-12.1 178.4-36c54.6-23.1 103.6-56.1 145.7-98.2 42.1-42.1 75.1-91.1 98.2-145.7 23.9-56.5 36-116.5 36-178.4s-12.1-121.9-36-178.4c-23.1-54.6-56.1-103.6-98.2-145.7-42.1-42.1-91.1-75.1-145.7-98.2-56.5-23.9-116.5-36-178.4-36z m0 896.6C271 822.4 74.4 625.8 74.4 384.1S271-54.2 512.7-54.2 951 142.4 951 384.1 754.4 822.4 512.7 822.4zM770.5 416.9c0 0.8-0.4 2-1.2 3.6L634.7 555.1h-1.2c-0.8 0.8-1.6 1.2-2.4 1.2-0.8 0.8-2 1.2-3.6 1.2h-250c-1.6 0-2.8-0.4-3.6-1.2-0.8 0-2-0.4-3.6-1.2L235.7 420.5v-1.2c-0.8-0.8-1.2-1.7-1.2-2.4l-1.2-1.2v-3.6c0-0.8 0.4-1.6 1.2-2.4v-1.2c0-0.8 0.4-1.2 1.2-1.2l259.6-273.1 2.4-2.4h1.2c0.8-0.8 2-1.2 3.6-1.2s2.8 0.4 3.6 1.2h1.2l2.4 2.4 259.6 273.1 1.2 1.2v1.2l1.2 2.4v3.6l-1.2 1.2zM637.1 525.1L739.2 423H637.1V525.1z m-19.2 13.2v-100.9l-93.7 100.9h93.7z m-12-115.4H399.1l103.4 110.5 103.4-110.5zM387.1 538.3h93.7l-93.7-100.9V538.3z m-19.2-13.2V423H265.8l102.1 102.1zM262.2 403.7h108.2L471.3 198 262.2 403.7z m240.3-234.6L390.8 403.7v0.1-0.1h223.5L502.5 169.1z m31.2 28.9l100.9 205.8h108.2L533.7 198zM390.8 403.7zM278 539.9l6-12.2c0-0.1 0.1-0.1 0.2-0.2l13.4-2c0.2 0 0.3-0.3 0.2-0.5l-9.7-9.5c-0.1-0.1-0.1-0.2-0.1-0.2l2.3-13.4c0-0.2-0.2-0.4-0.4-0.3l-12 6.3h-0.3l-12-6.3c-0.2-0.1-0.4 0.1-0.4 0.3l2.3 13.4c0 0.1 0 0.2-0.1 0.2l-9.7 9.5c-0.2 0.2-0.1 0.4 0.2 0.5l13.4 2c0.1 0 0.2 0.1 0.2 0.2l6 12.2c0.1 0.2 0.4 0.2 0.5 0z m0 0M274.2 594.7l-1.1-8.9c0-0.1 0-0.1 0.1-0.2l6.7-6c0.1-0.1 0.1-0.3-0.1-0.3l-8.9-1.7c-0.1 0-0.1 0-0.1-0.1l-3.6-8.2c-0.1-0.1-0.3-0.1-0.3 0l-4.3 7.9c0 0.1-0.1 0.1-0.1 0.1l-9 0.9c-0.2 0-0.2 0.2-0.1 0.3l6.2 6.6s0.1 0.1 0 0.2l-1.9 8.8c0 0.1 0.1 0.3 0.3 0.2l8.1-3.8h0.2l7.8 4.5s0.1-0.1 0.1-0.3z m0 0M673.2 330c-0.1 0-0.1 0-0.2 0.1s-0.2 0.2-0.1 0.3l1.4 8.2-5.9 5.8c-0.1 0.1-0.1 0.2-0.1 0.4 0 0.1 0.2 0.2 0.3 0.2l8.2 1.2 3.7 7.4c0.1 0.1 0.2 0.2 0.3 0.2 0.1 0 0.3-0.1 0.3-0.2l3.7-7.4 8.2-1.2c0.1 0 0.2-0.1 0.3-0.2 0-0.1 0-0.3-0.1-0.4l-5.9-5.8 1.4-8.2c0-0.1 0-0.3-0.1-0.3-0.1-0.1-0.3-0.1-0.4 0l-7.3 3.9-7.3-3.9c-0.3 0-0.3-0.1-0.4-0.1z m-4.6 14.7l5.9-5.8c0.1-0.1 0.1-0.2 0.1-0.3l-1.4-8.2 7.3 3.8c0.1 0.1 0.2 0.1 0.3 0l7.3-3.8-1.4 8.2c0 0.1 0 0.2 0.1 0.3l5.9 5.8-8.2 1.2c-0.1 0-0.2 0.1-0.3 0.2l-3.7 7.4-3.7-7.4c-0.1-0.1-0.2-0.2-0.3-0.2l-7.9-1.2z m0 0M315.2 593.6l2.8-6.3 5.3-3.4-5.3-3.5-2.8-6.3-2.9 6.3-5.3 3.5 5.3 3.4zM751.3 535.4l2.9-5.9 0.1-0.1 6.5-0.9c0.1 0 0.2-0.1 0.1-0.2l-4.7-4.6v-0.1l1.1-6.5c0-0.1-0.1-0.2-0.2-0.1l-5.8 3.1h-0.1l-5.8-3.1c-0.1-0.1-0.2 0-0.2 0.1l1.1 6.5v0.1l-4.7 4.6c-0.1 0.1 0 0.2 0.1 0.2l6.5 0.9s0.1 0 0.1 0.1l2.9 5.9c-0.1 0.1 0.1 0.1 0.1 0z m0 0M722 570.4l-0.2-10.4c0-0.1 0-0.1 0.1-0.2l8.5-6.1c0.1-0.1 0.1-0.3-0.1-0.4l-10-3c-0.1 0-0.1-0.1-0.1-0.1l-3.2-9.9c-0.1-0.2-0.3-0.2-0.4-0.1l-6 8.5c0 0.1-0.1 0.1-0.2 0.1l-10.4-0.1c-0.2 0-0.3 0.2-0.2 0.3l6.3 8.3c0 0.1 0.1 0.1 0 0.2l-3.3 9.9c-0.1 0.2 0.1 0.3 0.3 0.3l9.8-3.4h0.2l8.4 6.2c0.3 0.1 0.5 0 0.5-0.1z m0 0M731.1 495.7l2.3-5.1 4.2-2.7-4.2-2.8-2.3-5.1-2.3 5.1-4.2 2.8 4.2 2.7z"  horiz-adv-x="1024" />

    
    <glyph glyph-name="gongsiyuanjing" unicode="&#58902;" d="M620.9 213.6H393.7c-7.6 0-14.8 3.5-19.5 9.4-28 35.1-49.8 74.2-64.8 116.3-15.5 43.6-23.4 89.3-23.4 136 0 73.7 20 145.8 57.9 208.7 36.7 61 89.1 111.4 151.3 145.9 7.5 4.2 16.7 4.2 24.2 0C581.7 795.4 634 745 670.8 684c37.8-62.8 57.8-135 57.8-208.6 0-46.7-7.9-92.4-23.4-136-15-42.1-36.8-81.3-64.8-116.3-4.7-6-11.9-9.5-19.5-9.5z m-214.9 50h202.6c45.8 61.4 70 134.3 70 211.7 0 124.4-65.3 239.6-171.3 303.8C401.3 714.8 336 599.7 336 475.3c0-77.4 24.2-150.3 70-211.7zM591.7 138.6H423.1c-13.8 0-25 11.2-25 25v75c0 13.8 11.2 25 25 25h168.6c13.8 0 25-11.2 25-25v-75c0-13.8-11.2-25-25-25z m-143.6 50h118.6v25H448.1v-25zM507.4 486.6c-53.4 0-96.9 43.5-96.9 96.9s43.5 96.9 96.9 96.9c53.4 0 96.9-43.5 96.9-96.9s-43.5-96.9-96.9-96.9z m0 143.8c-25.9 0-46.9-21-46.9-46.9s21-46.9 46.9-46.9 46.9 21 46.9 46.9-21 46.9-46.9 46.9zM258.5 223.5c-8.3 0-16.1 4.1-20.7 11-20.1 29.8-30.7 64.7-30.7 100.9 0 60.7 30.2 117.1 80.7 150.8 11.5 7.7 27 4.6 34.7-6.9 7.7-11.5 4.6-27-6.9-34.7-36.6-24.4-58.5-65.2-58.5-109.2 0-14.5 2.3-28.6 6.8-42 21.3 20.1 47.3 34.9 75.8 42.8 13.3 3.7 27.1-4.1 30.8-17.4 3.7-13.3-4.1-27.1-17.4-30.8-30.1-8.4-56.3-27.3-73.8-53.4-4.7-6.9-12.4-11.1-20.8-11.1zM755.6 223.5c-8.4 0-16.1 4.2-20.8 11.1-17.5 26.1-43.7 45.1-73.8 53.4-13.3 3.7-21.1 17.5-17.4 30.8 3.7 13.3 17.5 21.1 30.8 17.4 28.5-7.9 54.5-22.7 75.8-42.8 4.5 13.4 6.8 27.5 6.8 42 0 44-21.9 84.8-58.5 109.2-11.5 7.7-14.6 23.2-6.9 34.7 7.7 11.5 23.2 14.6 34.7 6.9 50.6-33.7 80.7-90.1 80.7-150.8 0-36.2-10.6-71.1-30.7-100.9-4.6-6.9-12.4-11-20.7-11zM507.4 293.2c-13.8 0-25 11.2-25 25V442.8c0 13.8 11.2 25 25 25s25-11.2 25-25v-124.6c0-13.8-11.2-25-25-25zM435.7 57.4c-13.8 0-25 11.2-25 25v15.2c0 13.8 11.2 25 25 25s25-11.2 25-25v-15.2c0-13.8-11.2-25-25-25zM577.2 56.5c-13.8 0-25 11.2-25 25v16.1c0 13.8 11.2 25 25 25s25-11.2 25-25v-16.1c0-13.8-11.2-25-25-25zM507.4 26.3c-13.8 0-25 11.2-25 25v47.2c0 13.8 11.2 25 25 25s25-11.2 25-25v-47.2c0-13.8-11.2-25-25-25zM295-37.8h-98.5C128.4-37.8 73 17.6 73 85.7s55.4 123.5 123.5 123.5S320 153.8 320 85.7v-98.5c0-13.8-11.2-25-25-25z m-98.5 197c-40.5 0-73.5-33-73.5-73.5s33-73.5 73.5-73.5H270v73.5c0 40.5-33 73.5-73.5 73.5zM817.6-37.8h-98.5c-13.8 0-25 11.2-25 25v98.5c0 68.1 55.4 123.5 123.5 123.5s123.5-55.4 123.5-123.5-55.4-123.5-123.5-123.5z m-73.5 50h73.5c40.5 0 73.5 33 73.5 73.5s-33 73.5-73.5 73.5-73.5-33-73.5-73.5v-73.5zM719.1-37.8H295c-13.8 0-25 11.2-25 25s11.2 25 25 25h424.1c13.8 0 25-11.2 25-25s-11.2-25-25-25z"  horiz-adv-x="1024" />

    
    <glyph glyph-name="jiazhi" unicode="&#58983;" d="M513-16.5L97 511.9l199.5 261h433l197.5-261zM513-24.6L90.7 511.9l203.4 266H732l1.5-2 199.8-264.1L513-24.6zM103.3 511.9L513-8.4 920.7 512 727 767.9H299l-195.7-256zM513-16.5L297 511.9l99.5 261h233l97.5-261zM513-29.8L291.6 511.8 393 777.9h240l99.4-266.1L513-29.8zM302.4 512L513-3.2 721.6 512 626 767.9H400L302.4 512zM97 516.9h830v-10H97z"  horiz-adv-x="1024" />

    
    <glyph glyph-name="fuwu1" unicode="&#60214;" d="M640 153.6V42.666667h-85.333333v174.933333c106.666667 17.066667 192 102.4 209.066666 209.066667h85.333334c-12.8-123.733333-98.133333-230.4-209.066667-273.066667z m-256 0c-115.2 42.666667-196.266667 149.333333-213.333333 273.066667h85.333333c17.066667-106.666667 102.4-192 209.066667-209.066667V42.666667H384v110.933333zM605.866667 682.666667C674.133333 682.666667 725.333333 635.733333 725.333333 563.2c0-59.733333-51.2-123.733333-89.6-157.866667-25.6-25.6-68.266667-51.2-123.733333-81.066666-55.466667 29.866667-98.133333 55.466667-123.733333 81.066666-42.666667 38.4-89.6 98.133333-89.6 157.866667C298.666667 635.733333 349.866667 682.666667 418.133333 682.666667c38.4 0 68.266667-17.066667 93.866667-46.933334 25.6 29.866667 55.466667 46.933333 93.866667 46.933334z"  horiz-adv-x="1024" />

    
    <glyph glyph-name="jiazhixitong" unicode="&#58938;" d="M397.963636 477.090909l-38.423272 109.800727L286.254545 477.090909h111.709091z m-93.509818-23.272727l183.970909-235.147637L406.109091 453.818182h-101.655273z m415.092364 0H617.890909l-82.315636-235.147637L719.546182 453.818182z m18.199273 23.272727l-73.285819 109.800727L626.036364 477.090909h111.709091z m-305.128728-23.272727L512 225.745455l79.383273 228.072727H432.64zM581.818182 477.090909l-69.818182 93.090909-69.818182-93.090909h139.636364z m-86.434909 116.363636H384l36.491636-104.843636L495.383273 593.454545z m33.233454 0l74.891637-104.843636L640 593.454545h-111.383273zM512 896l442.181818-256v-512L512-128 69.818182 128V640L512 896z m0-28.276364L93.090909 625.850182v-483.700364l418.909091-241.873454 418.909091 241.873454V625.850182L512 867.723636zM512 151.272727L256 477.090909l93.090909 139.636364h325.818182l93.090909-139.636364-256-325.818182z"  horiz-adv-x="1024" />

    
    <glyph glyph-name="jiazhisuqiu" unicode="&#58941;" d="M598.272 330.635636L581.818182 314.181818h-69.818182v69.818182l16.453818 16.453818 130.001455 130.001455L674.909091 546.909091l69.818182-69.818182-16.453818-16.453818-130.001455-130.001455zM581.818182 347.08945500000004l99.909818 99.909818-36.910545 36.910545L544.907636 384 581.818182 347.08945500000004z m116.363636 116.363636l13.637818 13.637818L674.909091 514.0014550000001l-13.637818-13.637819L698.181818 463.453091zM558.545455 337.45454500000005l-23.272728 23.272728v-23.272728h23.272728z m-162.909091-162.90909h256v139.636363h23.272727v-162.909091H376.250182L279.272727 248.250182V616.727273h395.636364v-46.545455h-23.272727v23.272727H302.545455v-325.818181h93.090909v-93.090909z m116.363636 721.454545l442.181818-256v-512L512-128 69.818182 128V640L512 896z m0-28.276364L93.090909 625.850182v-483.700364l418.909091-241.873454 418.909091 241.873454V625.850182L512 867.7236359999999zM349.090909 546.909091h116.363636v-23.272727h-116.363636v23.272727z m0-69.818182h69.818182v-23.272727h-69.818182v23.272727z m0-69.818182h46.545455v-23.272727h-46.545455v23.272727z m23.272727-162.909091h-58.181818l58.181818-58.181818V244.36363600000004z"  horiz-adv-x="1024" />

    
    <glyph glyph-name="fuwu2" unicode="&#58899;" d="M819.656 269.078c-8.542 0-16.927 4.114-22.083 11.745-8.281 12.187-5.052 28.775 7.136 37.005 64.427 43.54 133.959 141.719 133.959 224.348 0 132.292-107.605 239.922-239.897 239.922-63.125 0-122.813-24.504-168.073-68.959a26.659 26.659 0 0 0-37.395 0c-45.21 44.48-104.897 68.96-168.022 68.96-132.292 0-239.948-107.63-239.948-239.923 0-91.458 50.833-173.697 132.656-214.661 13.177-6.59 18.49-22.63 11.928-35.782-6.615-13.228-22.656-18.463-35.782-11.927C94.135 329.885 32 430.406 32 542.176 32 703.87 163.562 835.434 325.28 835.434c68.804 0 134.22-23.751 186.72-67.37 52.552 43.619 117.968 67.369 186.77 67.369C860.439 835.432 992 703.87 992 542.178c0-101.485-80.053-216.223-157.396-268.515a26.607 26.607 0 0 0-14.948-4.585zM776.895 178.14c-21.978 0-42.603 8.569-58.125 24.09L617.052 303.921c-10.417 10.416-10.417 27.291 0 37.708 10.417 10.416 27.292 10.416 37.708 0l101.718-101.694c10.937-10.937 29.897-10.91 40.834 0.027 11.25 11.224 11.25 29.557 0 40.807L505.333 564.573c-10.572 10.26-10.78 27.136-0.52 37.709 10.312 10.547 27.187 10.781 37.708 0.521l292.24-284.064c32.29-32.317 32.29-84.453 0.26-116.51-15.573-15.547-36.198-24.088-58.125-24.088zM708.198 89.025c-21.041 0-42.084 7.996-58.125 24.038l-51.98 52.005c-10.416 10.416-10.416 27.291 0 37.708 10.418 10.417 27.293 10.417 37.71 0l51.98-52.005c11.25-11.25 29.582-11.25 40.832 0 5.47 5.469 8.49 12.708 8.49 20.417 0 7.734-3.022 14.973-8.49 20.415l-137.918 137.97c-10.416 10.417-10.416 27.292 0 37.708s27.293 10.416 37.71 0l137.916-137.943c15.521-15.521 24.115-36.172 24.115-58.15 0-21.954-8.595-42.604-24.115-58.152-16.041-16.015-37.084-24.01-58.125-24.01zM629.552 10.328c-21.98 0-42.604 8.568-58.125 24.088l-12.709 12.76c-10.416 10.417-10.416 27.292 0 37.709 10.417 10.364 27.292 10.418 37.71-0.052l12.707-12.735c10.938-10.884 29.896-10.91 40.834 0.027 11.25 11.25 11.25 29.609 0 40.86l-27.396 27.394c-10.416 10.418-10.416 27.293 0 37.709s27.293 10.417 37.71 0l27.395-27.396c32.032-32.057 32.032-84.219 0-116.276-15.522-15.52-36.147-24.088-58.126-24.088zM551.792-67.433c-21.98 0-42.604 8.57-58.125 24.089l-12.709 12.76c-10.416 10.417-10.416 27.292 0 37.709 10.417 10.364 27.292 10.418 37.71-0.052l12.707-12.735c10.938-10.884 29.896-10.91 40.834 0.027 11.25 11.25 11.25 29.609 0 40.86l-11.039 11.039c-10.417 10.416-10.417 27.29 0 37.707s27.293 10.417 37.71 0l11.038-11.04c32.032-32.056 32.032-84.218 0-116.275-15.522-15.52-36.147-24.088-58.126-24.088zM252.208 208.272c-21.927 0-42.552 8.542-58.125 24.062-32.031 32.083-32.031 84.22 0 116.276l87.604 87.604c31.198 31.12 85.261 31.016 116.25 0 15.521-15.521 24.115-36.171 24.115-58.125s-8.595-42.604-24.115-58.151l-87.603-87.578c-15.52-15.52-36.145-24.088-58.125-24.088z m87.604 198.698c-7.708 0-14.947-3.02-20.416-8.49l-87.603-87.577c-11.25-11.25-11.25-29.584 0-40.834 10.936-10.885 29.895-10.937 40.833 0l87.604 87.604c5.468 5.47 8.49 12.709 8.49 20.416s-3.022 14.949-8.49 20.39c-5.47 5.495-12.709 8.49-20.418 8.49zM330.75 129.728c-21.928 0-42.552 8.543-58.125 24.063-32.031 32.057-32.031 84.193 0 116.276l87.604 87.604c31.198 31.12 85.208 31.04 116.302 0.026 32.031-32.084 32.031-84.219 0-116.276l-87.657-87.604c-15.52-15.52-36.145-24.089-58.125-24.089z m87.604 198.699c-7.709 0-14.948-3.022-20.417-8.49l-87.603-87.578c-11.25-11.25-11.25-29.583 0-40.833 10.938-10.886 29.896-10.937 40.834 0l87.656 87.603c11.25 11.25 11.25 29.584 0 40.834-5.469 5.443-12.708 8.464-20.469 8.464zM409.291 51.161c-21.927 0-42.552 8.543-58.125 24.063-32.031 32.083-32.031 84.244 0 116.302l87.656 87.603c30.99 30.99 85.053 31.12 116.25 0.027 32.033-32.083 32.033-84.22 0-116.277l-87.656-87.63c-15.521-15.52-36.145-24.088-58.125-24.088z m87.656 198.724c-7.708 0-14.947-2.995-20.415-8.463l-87.657-87.605c-11.25-11.25-11.25-29.609 0-40.859 10.937-10.885 29.897-10.936 40.834 0l87.656 87.63c11.25 11.25 11.25 29.583 0 40.834-5.47 5.442-12.71 8.463-20.417 8.463zM487.833-27.38c-21.928 0-42.552 8.542-58.125 24.062-32.031 32.083-32.031 84.22 0 116.276l87.656 87.63c30.99 31.016 85.105 31.094 116.25 0.026 32.032-32.11 32.032-84.244 0-116.277l-87.603-87.629c-15.573-15.547-36.2-24.089-58.178-24.089z m87.656 198.724c-7.708 0-14.947-2.995-20.416-8.464l-87.656-87.63c-11.25-11.25-11.25-29.582 0-40.833 10.937-10.885 29.948-10.86 40.885 0.026l87.604 87.604c11.25 11.25 11.25 29.583 0 40.833-5.468 5.443-12.709 8.464-20.417 8.464zM387.626 457.177c-21.928 0-42.553 8.542-58.125 24.062-32.032 32.084-32.032 84.219 0 116.277l164.27 154.087c10.677 10.027 27.603 9.558 37.656-1.198 10.103-10.755 9.583-27.63-1.198-37.71L366.583 559.208c-10.625-10.65-10.625-28.983 0.625-40.234 10.938-10.885 29.896-10.937 40.834 0l98.489 84.921c11.198 9.532 28.02 8.335 37.604-2.812 9.584-11.146 8.334-27.994-2.813-37.604l-97.031-83.569c-14.063-14.164-34.687-22.732-56.665-22.732z"  horiz-adv-x="1024" />

    
    <glyph glyph-name="iconset0417" unicode="&#59176;" d="M917.333333 597.333333c-6.4 0-10.666667-2.133333-14.933333-6.4L512 221.866667 121.6 590.933333C117.333333 595.2 113.066667 597.333333 106.666667 597.333333c-12.8 0-21.333333-8.533333-21.333333-21.333333 0-6.4 2.133333-10.666667 6.4-14.933333l405.333333-384c4.266667-4.266667 8.533333-6.4 14.933333-6.4 6.4 0 10.666667 2.133333 14.933333 6.4l405.333333 384c4.266667 4.266667 6.4 8.533333 6.4 14.933333C938.666667 588.8 930.133333 597.333333 917.333333 597.333333z"  horiz-adv-x="1024" />

    
    <glyph glyph-name="zixunfuwu" unicode="&#58932;" d="M511.706311 831.978894C264.433578 831.978894 63.981197 631.52549 63.981197 384.254803c0-247.272733 200.452381-447.725114 447.725114-447.725114s447.725114 200.452381 447.725114 447.725114C959.431425 631.52549 758.979044 831.978894 511.706311 831.978894zM583.594595 225.563548c-32.361035-48.563042-65.271586-86.019119-120.658034-86.019119-37.801954 6.15314-53.323463 33.248242-45.119617 60.83453l71.244624 235.951897c1.711991 5.77861-1.168616 11.955286-6.436596 13.803377-5.26798 1.849114-15.564487-4.979408-24.478508-14.735609l-43.046399-51.8059c-1.174756 8.674567-0.124843 23.073508-0.124843 28.872584 32.361035 48.564066 85.494163 86.897116 121.538077 86.897116 34.285874-3.51608 50.478671-30.894637 44.509726-61.000306L509.295402 201.274352c-0.962931-5.375427 1.867534-10.79281 6.740518-12.500709 5.26798-1.848091 16.350386 4.981455 25.2685 14.735609l43.043329 51.806923C585.525574 246.643656 583.594595 231.364671 583.594595 225.563548zM571.109236 530.839323c-27.241434 0-49.328475 19.824511-49.328475 49.062416 0 29.237905 22.086018 49.062416 49.328475 49.062416 27.242458 0 49.328475-19.824511 49.328475-49.062416C620.436688 550.663834 598.35067 530.839323 571.109236 530.839323z"  horiz-adv-x="1024" />

    
    <glyph glyph-name="shouye" unicode="&#58901;" d="M453.618399 679.479734c-23.976382 28.326648-51.006566 59.030147-79.624508 91.533379-28.896928 32.819143-58.77441 66.748759-86.053493 98.919669-34.607935 34.292024-71.371173 34.79119-103.090783 1.254069-26.205534-29.413873-56.076178-60.83535-84.966268-91.224307-29.074713-30.58452-59.136818-62.202929-85.710231-92.032545-18.373414-20.904801-14.927116-37.720543-11.230553-45.879515 5.80537-12.834722 18.997029-20.506836 28.397762-20.506836l40.976747 0L72.317072 482.295466c0-23.41841 16.691292-48.487487 41.541557-48.487487l79.434415 0L193.293044 572.283481l86.87404 0 0-138.475502 80.011533 0c15.431753 0 41.547027 12.495562 41.547027 59.325544l0 128.410126 30.007402 0c11.759805 0 21.967409 6.227951 27.310537 16.668044C465.378205 650.582806 463.518298 665.806687 453.618399 679.479734z"  horiz-adv-x="1252" />

    
    <glyph glyph-name="zonghezhenduan" unicode="&#58937;" d="M717.703529 673.008941 684.875294 691.139765 649.637647 588.679529 684.092235 588.679529 717.703529 673.008941 717.703529 673.008941ZM633.374118 383.457882 503.868235 896 387.855059 378.819765C379.000471 360.146824 374.422588 339.546353 374.362353 318.704941L374.241882 318.524235 374.362353 318.524235C374.362353 294.731294 380.084706 270.697412 392.613647 248.651294 430.622118 181.910588 514.710588 159.021176 580.547765 197.632 624.64 223.412706 649.216 270.336 649.216 318.584471L649.758118 318.584471 649.276235 320.271059C649.155765 341.594353 643.915294 363.279059 633.374118 383.457882L633.374118 383.457882ZM512.060235 213.654588C454.957176 213.654588 408.816941 260.517647 408.816941 318.403765 408.816941 376.289882 455.017412 423.152941 512.060235 423.152941 569.103059 423.152941 615.363765 376.289882 615.363765 318.403765 615.363765 260.577882 569.103059 213.654588 512.060235 213.654588L512.060235 213.654588ZM606.509176 818.176 593.016471 751.254588C782.275765 713.968941 925.033412 548.382118 925.033412 349.786353 925.033412 123.663059 740.111059-59.693176 512-59.693176 283.888941-59.693176 98.966588 123.663059 98.966588 349.786353 98.966588 548.442353 241.603765 713.968941 430.923294 751.254588L417.430588 818.176C196.608 774.565647 30.117647 581.511529 30.117647 349.726118 30.117647 85.955765 245.820235-128 512-128 778.179765-128 993.882353 85.835294 993.882353 349.726118 993.882353 581.511529 827.331765 774.565647 606.509176 818.176L606.509176 818.176ZM752.941176 520.372706 752.941176 486.219294 849.377882 533.504 830.403765 565.007059 752.941176 520.372706 752.941176 520.372706ZM133.421176 349.786353 236.664471 349.786353 236.664471 383.939765 133.421176 383.939765 133.421176 349.786353 133.421176 349.786353ZM890.578824 349.786353 890.578824 383.939765 787.335529 383.939765 787.335529 349.786353 890.578824 349.786353 890.578824 349.786353ZM339.907765 588.619294 374.362353 588.619294 339.064471 691.079529 306.236235 672.948706 339.907765 588.619294 339.907765 588.619294ZM291.960471 510.554353 193.596235 565.007059 174.622118 533.504 272.986353 479.111529 291.960471 510.554353 291.960471 510.554353ZM512.060235 388.276706C473.991529 388.276706 443.151059 356.954353 443.151059 318.403765 443.151059 279.792941 473.991529 248.591059 512.060235 248.591059 550.068706 248.591059 580.909176 279.913412 580.909176 318.403765 580.909176 356.954353 550.068706 388.276706 512.060235 388.276706L512.060235 388.276706Z"  horiz-adv-x="1024" />

    
    <glyph glyph-name="zixun" unicode="&#59039;" d="M817.956 495.533h-36.287v13.471c0 72.697-28.521 141.145-80.221 192.967-51.7 51.7-120.271 80.221-192.967 80.221s-141.145-28.521-192.967-80.221c-51.7-51.7-80.221-120.271-80.221-192.967v-13.471h-35.195c-52.914 0-89.808-36.895-89.808-89.808v-154.010c0-49.516 40.292-89.808 89.808-89.808h46.239v-0.242c0-69.541 56.676-126.218 126.218-126.218h41.991c1.942-24.88 22.938-44.661 48.423-44.661h92.479c26.7 0 48.545 21.845 48.545 48.545v31.312c0 26.7-21.845 48.545-48.545 48.545h-92.479c-25.486 0-46.482-19.903-48.423-44.905h-41.991c-48.181 0-87.381 39.2-87.381 87.381v8.738l0.85 0.85c0.485 0.485 0.971 1.092 1.334 1.578 0.122 0.122 0.122 0.242 0.242 0.364 0.485 0.607 0.85 1.092 1.214 1.699 0 0.122 0.122 0.122 0.122 0.242 0.364 0.607 0.729 1.092 1.092 1.699 0 0.122 0.122 0.122 0.122 0.242 0.364 0.607 0.607 1.214 0.971 1.942 0 0.122 0.122 0.242 0.122 0.364 0.242 0.607 0.485 1.334 0.729 1.942 0 0.122 0.122 0.242 0.122 0.242 0.242 0.607 0.485 1.334 0.607 2.063v0.122c0.242 0.729 0.364 1.456 0.485 2.185 0 0.122 0 0.242 0.122 0.364 0.122 0.729 0.242 1.456 0.242 2.185v0.364c0 0.729 0.122 1.578 0.122 2.306v317.85c0 118.45 96.362 214.813 214.813 214.813s214.813-96.362 214.813-214.813v-317.971c0-16.142 12.986-29.127 29.127-29.127h65.294c49.516 0 89.808 40.292 89.808 89.808v154.010c0.242 52.914-36.652 89.808-89.566 89.808zM168.543 251.714v154.010c0 26.093 17.113 31.554 31.554 31.554h35.316v-217.119h-35.316c-17.476 0-31.554 14.199-31.554 31.554zM849.51 251.714c0-17.355-14.199-31.554-31.554-31.554h-36.287v217.119h36.287c14.442 0 31.554-5.461 31.554-31.554v-154.010z"  horiz-adv-x="1024" />

    
    <glyph glyph-name="youhuayunhang" unicode="&#58913;" d="M647.610811-50.508108h-88.562162v130.075676h110.702702c-5.535135 24.908108-8.302703 52.583784-8.302702 77.491891H138.378378c-35.978378 0-63.654054 30.443243-63.654054 66.421622v525.837838c0 35.978378 27.675676 66.421622 63.654054 66.421622h802.594595c35.978378 0 63.654054-30.443243 63.654054-66.421622v-235.243243c24.908108 0 52.583784-2.767568 74.724324-8.302703V752.086486C1079.351351 832.345946 1018.464865 896 940.972973 896H138.378378C63.654054 896 0 832.345946 0 752.086486v-525.837837c0-80.259459 63.654054-143.913514 138.378378-143.913514h340.410811v-130.075676h-88.562162c-22.140541 0-38.745946-16.605405-38.745946-38.745945s16.605405-38.745946 38.745946-38.745946h254.616216c22.140541 0 38.745946 16.605405 38.745946 38.745946s-13.837838 35.978378-35.978378 35.978378zM888.389189 96.172973c-85.794595 0-157.751351 71.956757-157.751351 157.751351s71.956757 157.751351 157.751351 157.751352v77.491892c-130.075676 0-235.243243-105.167568-235.243243-235.243244s105.167568-235.243243 235.243243-235.243243 235.243243 105.167568 235.243243 235.243243h-77.491891c0-88.562162-69.189189-157.751351-157.751352-157.751351zM965.881081 503.005405H940.972973v-190.962162h190.962162v24.908108c0 94.097297-74.724324 166.054054-166.054054 166.054054z m27.675676-138.378378v83.027027c41.513514-11.07027 71.956757-41.513514 83.027027-83.027027h-83.027027zM772.151351 638.616216L470.486486 386.767568l-135.61081 132.843243c-13.837838 13.837838-35.978378 13.837838-49.816217 0s-13.837838-35.978378 0-49.816216L442.810811 314.810811c5.535135-5.535135 16.605405-11.07027 24.908108-11.07027 8.302703 0 16.605405 2.767568 22.14054 8.302702l326.572973 271.221622c13.837838 11.07027 16.605405 33.210811 5.535136 47.048649-11.07027 19.372973-33.210811 22.140541-49.816217 8.302702z"  horiz-adv-x="1131" />

    
    <glyph glyph-name="xueqianzhenduan" unicode="&#58951;" d="M646.6-47.6c0-9.1-7.4-16.5-16.5-16.5H152.5c-48.9 0-88.7 39.8-88.7 88.7V690.3c0 48.9 39.8 88.7 88.7 88.7h115.1c9.1 0 16.5-7.4 16.5-16.5s-7.4-16.5-16.5-16.5H152.5c-30.7 0-55.7-25-55.7-55.7v-665.8c0-30.7 25-55.7 55.7-55.7h477.6c9.1 0.1 16.5-7.3 16.5-16.4zM754.9 746h115.8c30.7 0 55.7-25 55.7-55.7v-429.9c0-9.1 7.4-16.5 16.5-16.5s16.5 7.4 16.5 16.5V690.3c0 48.9-39.8 88.7-88.7 88.7H754.9c-9.1 0-16.5-7.4-16.5-16.5s7.4-16.5 16.5-16.5zM186 564.1h170c5.5 0 10 4.5 10 10s-4.5 10-10 10H186c-5.5 0-10-4.5-10-10s4.4-10 10-10z m0-105.7h260c5.5 0 10 4.5 10 10s-4.5 10-10 10H186c-5.5 0-10-4.5-10-10s4.4-10 10-10z m0-105.7h319.2c5.5 0 10 4.5 10 10s-4.5 10-10 10H186c-5.5 0-10-4.5-10-10s4.4-10 10-10z m768.8-411.4c-3.2-3.2-7.4-4.8-11.6-4.8-4.2 0-8.5 1.6-11.7 4.9l-84.3 84.9c-32-27.2-73.4-43.6-118.6-43.6-101.2 0-183.5 82.3-183.5 183.5s82.3 183.5 183.5 183.5 183.5-82.3 183.5-183.5c0-44.1-15.7-84.7-41.7-116.4l84.5-85.2c6.4-6.5 6.4-16.9-0.1-23.3z m-75.7 224.8c0 83-67.5 150.5-150.5 150.5s-150.5-67.5-150.5-150.5 67.5-150.5 150.5-150.5 150.5 67.6 150.5 150.5zM310.2 762.6c0 37.9 30.8 68.8 68.8 68.8h264.8c37.9 0 68.8-30.8 68.8-68.8s-30.8-68.8-68.8-68.8H378.9c-37.9 0-68.7 30.9-68.7 68.8z m33 0c0-19.7 16-35.8 35.8-35.8h264.8c19.7 0 35.8 16 35.8 35.8s-16 35.8-35.8 35.8H378.9c-19.7-0.1-35.7-16.1-35.7-35.8z"  horiz-adv-x="1024" />

    
    <glyph glyph-name="banjizhenduan" unicode="&#58943;" d="M128 832a64 64 0 0 1-64-64v-768a64 64 0 0 1 64-64h768a64 64 0 0 1 64 64V768a64 64 0 0 1-64 64H128z m0 64h768a128 128 0 0 0 128-128v-768a128 128 0 0 0-128-128H128a128 128 0 0 0-128 128V768a128 128 0 0 0 128 128zM185.024 352H24.704v64h176.128a38.4 38.4 0 0 0 34.368-21.248l63.168-126.336 116.608 427.52a44.8 44.8 0 0 0 87.296-3.84l96.64-540.8 128.896 368.32a44.8 44.8 0 0 0 82.368 5.248l54.4-108.864H998.4v-64h-149.632a38.4 38.4 0 0 0-34.368 21.248l-41.216 82.368-138.048-394.56a44.8 44.8 0 0 0-86.4 6.912L454.272 596.864 346.88 203.072a44.8 44.8 0 0 0-83.264-8.192L184.96 352z"  horiz-adv-x="1024" />

    
    <glyph glyph-name="zixun1" unicode="&#59021;" d="M224 416c-52.992 0-96 57.28-96 128 0 64.192 35.456 117.376 81.664 126.592C253.184 783.232 372.096 864 512 864c139.904 0 258.88-80.832 302.336-193.408C860.544 661.376 896 608.192 896 544c0-70.72-43.008-128-96-128H768V576c0 122.112-113.216 224-256 224S256 698.112 256 576v-160h-32z m-158.208-512A258.688 258.688 0 0 0 64-64c0 140.8 88.448 263.936 220.288 330.752A382.272 382.272 0 0 1 512 192a382.272 382.272 0 0 1 227.712 74.752C871.552 199.936 960 76.8 960-64c0-11.712-0.64-22.4-1.792-32H65.792zM512 288a224 224 0 1 0 0 448 224 224 0 0 0 0-448z"  horiz-adv-x="1024" />

    
    <glyph glyph-name="shouye1" unicode="&#58894;" d="M915.477 409L536.379 788.01c-13.464 13.464-35.294 13.376-48.759-0.089L108.521 409c-10.26-10.26-12.69-25.858-7.312-38.134 0.301-0.778 0.662-1.524 1.08-2.235l0.014-0.029c0.025-0.04 0.062-0.105 0.103-0.177l0.007 0.002c2.693-4.419 7.542-7.38 13.096-7.38 0.493 0 0.978 0.005 1.459 0.05 0.018-0.024 0.042-0.097 0.06-0.097H183v-356.32c0-19.366 16.243-34.68 35.609-34.68h585.597C823.572-30 838-14.686 838 4.68V361h67.274c0.809 0 1.812 0.023 2.609 0.023 5.557 0 10.867 2.904 13.559 7.328 0.134-0.025-0.133 0.023 0 0 6.984 12.6 5.04 29.645-5.965 40.649zM630 23H391V234.36c0 65.845 53.655 126.236 119.5 126.236S630 300.205 630 234.36V23z"  horiz-adv-x="1024" />

    
    <glyph glyph-name="faxian-copy" unicode="&#58896;" d="M982.85567393 471.66682217l-441.16207287 325.21563065c-16.96777203 12.72582902-41.00544908 12.72582902-57.97322112 0l-441.16207286-325.21563065c-15.55379103-11.31184801-18.38175303-33.93554407-7.06990502-49.4893351s33.93554407-18.38175303 49.4893351-7.069905L512 729.0113646899999l428.43624385-315.31776363c5.65592402-4.24194301 14.13981003-7.06990501 21.20971503-7.06990502 11.31184801 0 21.20971504 5.65592402 28.27962006 14.13981002 11.31184801 16.96777203 8.48388603 38.17748707-7.06990501 50.90331611zM827.31776362 409.45165805v-356.32321271c0-11.31184801-7.06990501-19.79573404-14.13981002-19.79573403H663.29596729v141.39810027c0 46.6613731-38.17748707 86.25284116-84.83886015 86.25284117h-132.91421428c-46.6613731 0-84.83886017-38.17748707-84.83886015-86.25284117v-141.39810027H210.8220464c-7.06990501 0-14.13981003 8.48388603-14.13981002 19.79573403V409.45165805c-39.59146809-7.06990501-70.69905013-43.83341109-70.69905014-89.08080317v-268.65639055c0-49.48933509 38.17748707-90.49478418 84.83886016-90.49478417h220.58103645v212.09715042c0 8.48388603 5.65592402 15.55379103 14.13981001 15.55379104h132.91421428c8.48388603 0 14.13981003-7.06990501 14.13981001-15.55379104v-212.09715042h220.58103645c46.6613731 0 84.83886017 41.00544908 84.83886016 90.49478417v268.65639055c0 45.24739209-31.10758207 82.01089817-70.69905014 89.08080317z"  horiz-adv-x="1024" />

    
    <glyph glyph-name="zixunxuanzhong" unicode="&#58920;" d="M925.4 576.9c-22.7 49.9-55.1 94.8-96.5 133.3-41.1 38.3-89 68.4-142.2 89.4-55 21.6-113.4 32.6-173.6 32.6-60.2 0-118.6-11-173.6-32.6-53.3-21-101.1-51.1-142.2-89.4-41.3-38.5-73.7-83.3-96.5-133.3-23.5-52-35.5-107.1-35.5-164 0-102.3 39.4-200 111.3-276.7l20.2-172c1.2-10.5 7.6-19.7 17.1-24.4 4.4-2.2 9.2-3.4 14.2-3.4 5.3 0 10.8 1.4 15.6 4.1l129.7 73.7c45-13.8 91.9-20.8 139.8-20.8 60.2 0 118.6 11 173.6 32.6 53.3 21 101.1 51.1 142.2 89.4 41.3 38.5 73.7 83.3 96.5 133.3 23.6 52 35.5 107.1 35.5 164-0.1 57-12.1 112.2-35.6 164.2zM320.6 364.2c-26.5 0-48.1 21.5-48.1 48.1s21.5 48.1 48.1 48.1 48.1-21.5 48.1-48.1-21.5-48.1-48.1-48.1z m192.4 0c-26.5 0-48.1 21.5-48.1 48.1s21.5 48.1 48.1 48.1c26.5 0 48.1-21.5 48.1-48.1s-21.6-48.1-48.1-48.1z m192.5 0c-26.5 0-48.1 21.5-48.1 48.1s21.5 48.1 48.1 48.1c26.5 0 48.1-21.5 48.1-48.1-0.1-26.5-21.6-48.1-48.1-48.1z"  horiz-adv-x="1024" />

    
    <glyph glyph-name="yongdianzhenduan" unicode="&#59032;" d="M947.2 0l-178.688 178.688c25.088 30.208 45.568 63.488 60.416 99.328 20.48 49.152 31.232 100.864 31.232 154.624s-10.24 105.472-31.232 154.624c-19.968 47.104-48.64 89.6-84.992 125.952-36.352 36.352-78.848 65.024-125.952 84.992-49.152 20.48-100.864 31.232-154.624 31.232s-105.472-10.24-154.624-31.232c-47.104-19.968-89.6-48.64-125.952-84.992S117.76 634.368 97.792 587.264C76.8 538.112 66.56 485.888 66.56 432.64s10.24-105.472 31.232-154.624c19.968-47.104 48.64-89.6 84.992-125.952 36.352-36.352 78.848-65.024 125.952-84.992 49.152-20.48 100.864-31.232 154.624-31.232s105.472 10.24 154.624 31.232c36.352 15.36 69.632 35.84 99.84 60.928l178.688-178.688c7.168-7.168 16.384-10.24 25.6-10.24 9.216 0 18.432 3.584 25.6 10.24 13.312 13.824 13.312 36.864-0.512 50.688z m-483.84 107.52c-179.2 0-325.12 145.92-325.12 325.12S284.16 757.76 463.36 757.76 788.48 611.84 788.48 432.64 642.56 107.52 463.36 107.52zM684.032 541.696c-12.288 10.752-31.232 9.728-42.496-2.56l-125.44-142.848-90.112 139.264c-5.12 7.68-13.312 12.8-22.528 13.312-9.216 0.512-18.432-2.56-24.576-9.728l-157.184-172.032c-11.264-12.288-10.24-31.232 2.048-42.496 5.632-5.12 12.8-7.68 19.968-7.68 8.192 0 16.384 3.072 22.016 9.728l131.072 143.872 91.136-139.776c5.12-7.68 13.824-12.8 23.04-13.312 9.216-0.512 18.432 3.072 24.576 10.24l151.04 172.544c11.264 11.776 9.728 30.208-2.56 41.472z"  horiz-adv-x="1024" />

    
    <glyph glyph-name="SQLzhenduan" unicode="&#58900;" d="M110.369391 98.348522h829.217392v-68.697044H110.369391zM182.717217 320.957217h133.565218v-179.021913h-133.565218zM366.369391 575.087304h133.565218v-433.152h-133.565218zM550.021565 415.565913h133.609739v-273.630609h-133.609739zM733.673739 719.782957h133.609739v-577.847653h-133.609739z"  horiz-adv-x="1024" />

    
    <glyph glyph-name="fangan" unicode="&#58880;" d="M634.1 380.9L740.7 488c16.1 16.1 16.1 41.4 0 57.6l-63.3 63.7c-16.1 16.1-41.2 16.1-57.3 0L513.3 502.1 402.6 613.2c-16.1 16.1-41.2 16.1-57.3 0L281 548.6c-16.1-16.1-16.1-41.4 0-57.6l110.6-111.1-91.5-92c-6-6-15.1-45.4-26.2-115.2v-1c0-8.1 3.1-16.1 8.1-22.2 5-6 14.1-9.1 22.1-8.1h1c70.4 11.1 109.7 20.2 116.7 27.3l91.6 92L624 149.5c16.1-16.1 41.2-16.1 57.3 0l64.4 64.7c15.1 14.1 15.1 40.3-1 55.5L634.1 380.9z m3.2 209.1c7.5 7.6 19.7 7.6 26.2 0l60-60.3c7.5-7.6 7.5-19.8 0-26.4l-30-30.1-86.3 87.6 30.1 29.2zM373.2 436.2l46.8 47c3.8 3.7 3.8 9.4 0 13.2-3.7 3.8-9.3 3.8-13.1 0l-46.8-47-23.4 23.5 46.8 47c3.8 3.7 3.8 9.4 0 13.2-3.7 3.7-9.3 3.7-13.1 0l-46.8-47-19.6 19.6c-7.5 7.5-7.5 18.8 0 26.3l59.9 60.1c7.5 7.5 18.7 7.5 26.2 0L493 488.8l-86-86.4-33.8 33.8z m-70.1-275.6c-5 0-9.1 4.1-9.1 9.1 6 38.4 14.1 82.9 20.1 100l88.5-88.9c-17-6.1-60.3-14.1-99.5-20.2z m120.1 43.9l-86.9 87.3L582 538.5l86.9-87.3-245.7-246.7z m297.7 26.2l-58-58.3c-7.2-7.3-18.1-7.3-25.3 0l-25.4 25.5 45.3 45.5c3.6 3.6 3.6 9.1 0 12.8-3.6 3.6-9.1 3.6-12.7 0l-45.3-45.5-28.1 28.2 45.3 45.5c3.6 3.6 3.6 9.1 0 12.8-3.6 3.6-9.1 3.6-12.7 0l-45.3-45.6-20 20 83.4 83.7 99.7-100.1c6.4-6.4 6.4-17.3-0.9-24.5zM512 884C236.3 884 12 659.7 12 384s224.3-500 500-500 500 224.3 500 500S787.7 884 512 884z m0-957.6C259.7-73.6 54.4 131.7 54.4 384S259.7 841.6 512 841.6 969.6 636.3 969.6 384 764.3-73.6 512-73.6z"  horiz-adv-x="1024" />

    
    <glyph glyph-name="huihuazhenduan" unicode="&#58914;" d="M248.30976 650.78272h452.95616v-77.47584H248.30976zM158.57664 798.62784h632.41216v-225.32096h77.49632V876.11392H81.07008V-78.01856h563.32288v77.47584H158.57664zM827.2384 164.7104c34.97984 42.52672 56.832 96.26624 56.832 155.61728 0 136.11008-110.34624 246.45632-246.44608 246.45632-78.72512 0-148.03968-37.60128-193.14688-95.05792H248.30976V394.24h155.40224c-7.43424-23.47008-12.544-47.9744-12.544-73.91232 0-19.82464 2.9696-38.8608 7.3728-57.344H248.30976V87.4496h312.064c24.44288-8.12032 50.1248-13.55776 77.25056-13.55776 48.24064 0 92.90752 14.39744 130.9184 38.36928l194.9696-153.06752 47.85152 60.91776-184.12544 144.59904z"  horiz-adv-x="1024" />

    
    <glyph glyph-name="zhenduanbaogao" unicode="&#58921;" d="M800.08-29.41H208a72.08 72.08 0 0 0-72 72V635.16a72.08 72.08 0 0 0 72 72h592.08a72.08 72.08 0 0 0 72-72v-592.57a72.08 72.08 0 0 0-72-72z m-568.08 96h544.08V611.16H232zM684.05 579.53H324a60.07 60.07 0 0 0-60 60v145.4a60.07 60.07 0 0 0 60 60h360.05a60.07 60.07 0 0 0 60-60v-145.4a60.07 60.07 0 0 0-60-60z m-324.05 96h288.05v73.4H360zM347.799937 336.831294m36.071734-31.667491l106.77985-93.742369q36.071735-31.667491 4.404244-67.739226l0 0q-31.667491-36.071735-67.739225-4.404244l-106.77985 93.74237q-36.071735 31.667491-4.404244 67.739225l0 0q31.667491 36.071735 67.739225 4.404244ZM738.288568 419.18094m-31.667491-36.071735l-209.143983-238.231262q-31.667491-36.071735-67.739225-4.404244l0 0q-36.071735 31.667491-4.404244 67.739225l209.143983 238.231262q31.667491 36.071735 67.739225 4.404244l0 0q36.071735-31.667491 4.404244-67.739225Z"  horiz-adv-x="1024" />

    
    <glyph glyph-name="icon_huabanfuben" unicode="&#58915;" d="M376.983704 383.525926c-36.882963 0-66.939259 30.056296-66.93926 67.034074s30.056296 67.034074 66.93926 67.034074 66.939259-30.056296 66.939259-67.034074-30.056296-67.034074-66.939259-67.034074z m0 91.401481c-13.368889 0-24.272593-10.903704-24.272593-24.367407s10.903704-24.367407 24.272593-24.367407 24.272593 10.903704 24.272592 24.367407-10.903704 24.367407-24.272592 24.367407zM829.534815 384.18963c-36.598519 0-66.37037 29.771852-66.370371 66.37037s29.771852 66.37037 66.370371 66.37037 66.37037-29.771852 66.37037-66.37037-29.771852-66.37037-66.37037-66.37037z m0 90.074074c-13.084444 0-23.703704-10.619259-23.703704-23.703704s10.619259-23.703704 23.703704-23.703704 23.703704 10.619259 23.703704 23.703704-10.619259 23.703704-23.703704 23.703704zM829.534815 211.531852c-36.598519 0-66.37037 29.771852-66.370371 66.37037s29.771852 66.37037 66.370371 66.370371 66.37037-29.771852 66.37037-66.370371-29.771852-66.37037-66.37037-66.37037z m0 90.074074c-13.084444 0-23.703704-10.619259-23.703704-23.703704s10.619259-23.703704 23.703704-23.703703 23.703704 10.619259 23.703704 23.703703-10.619259 23.703704-23.703704 23.703704zM829.534815 539.401481c-36.598519 0-66.37037 29.771852-66.370371 66.370371s29.771852 66.37037 66.370371 66.37037 66.37037-29.771852 66.37037-66.37037-29.771852-66.37037-66.37037-66.370371z m0 90.074075c-13.084444 0-23.703704-10.619259-23.703704-23.703704s10.619259-23.703704 23.703704-23.703704 23.703704 10.619259 23.703704 23.703704-10.619259 23.703704-23.703704 23.703704zM594.962963-0.284444H330.998519l-9.291852 82.678518c-2.844444 25.6-17.825185 30.056296-53.665186 34.797037-14.222222 1.896296-28.918519 3.792593-41.149629 9.671111-17.635556 8.533333-27.022222 23.608889-27.022222 43.70963 0 15.54963 0.18963 30.245926 0.379259 45.795555 0.18963 15.644444 0.379259 31.668148 0.474074 50.820741-3.697778 0.948148-8.059259 1.801481-11.472593 2.56-23.04 4.835556-49.114074 10.334815-58.405926 30.435556-2.654815 5.688889-5.878519 17.445926 1.991112 31.952592l2.18074 4.077037c36.219259 66.74963 67.508148 124.397037 67.508148 176.450371 0 29.487407 7.016296 64.663704 19.152593 96.521481 15.644444 40.865185 39.727407 76.325926 69.499259 102.4 24.841481 21.712593 53.76 37.357037 86.091852 46.554074 35.934815 10.145185 76.325926 12.420741 120.130371 6.542222 82.394074-10.998519 143.54963-52.527407 181.665185-123.354074 29.866667-55.656296 45.037037-128.853333 45.037037-217.789629 0-57.078519-9.576296-105.718519-29.202963-148.66963-17.066667-37.262222-38.779259-64-57.837037-87.514074-24.462222-30.151111-42.192593-51.958519-42.192593-84.005926v-103.632592z m-225.754074 42.666666h183.087407v60.776297c0 47.122963 25.125926 78.127407 51.674074 110.838518 36.314074 44.752593 77.558519 95.573333 77.558519 209.256296 0 81.73037-13.463704 148.195556-40.011852 197.594074-31.668148 58.974815-80.687407 92.065185-149.712593 101.262223-71.111111 9.481481-129.137778-4.93037-172.468148-42.856297-58.595556-51.294815-74.05037-131.508148-74.05037-166.779259 0-62.293333-33.09037-123.828148-71.68-194.939259 7.016296-2.56 18.299259-4.93037 24.462222-6.162963 8.248889-1.706667 16.023704-3.413333 22.471111-5.594074 19.911111-6.921481 22.85037-19.816296 22.850371-26.927408 0-24.841481-0.284444-45.131852-0.474074-63.146666-0.18963-15.454815-0.379259-29.961481-0.37926-45.226667 0-3.887407 0.474074-4.077037 2.93926-5.30963 5.973333-2.939259 17.256296-4.361481 28.065185-5.783703 17.066667-2.180741 36.408889-4.740741 53.38074-13.937778 21.712593-11.662222 34.228148-31.383704 37.262223-58.405926l5.025185-44.657778zM170.287407 311.371852zM602.453333 139.188148c-61.62963 0-117.380741 28.254815-161.374814 81.635556-38.020741 46.174815-65.801481 110.459259-78.222223 181.001481l42.002963 7.395556c11.188148-63.431111 35.65037-120.699259 69.12-161.28 24.841481-30.151111 67.223704-66.085926 128.37926-66.085926v-42.666667zM398.506667 495.691852l-42.666667 1.137778c1.517037 56.414815 13.368889 109.511111 34.417778 153.41037 23.798519 49.777778 58.121481 86.565926 101.831111 109.416296l19.721481-37.831111c-68.171852-35.555556-110.554074-120.035556-113.303703-226.133333zM777.386667 256.568889H551.158519V627.105185h226.228148v-42.666666H593.825185v-285.202963h183.561482zM422.58963 471.893333h354.797037v-42.666666H422.58963z"  horiz-adv-x="1024" />

    
    <glyph glyph-name="zhinengzhuji" unicode="&#58927;" d="M128-21.33h768V322.62H128v-343.95z m85.33 258.62h597.33V64H213.33V237.29zM819.52 543.2c-46.35 46.51-110.47 75.3-181.33 75.3-70.85 0-134.97-28.79-181.33-75.3l60.34-60.34c30.91 31.07 73.7 50.31 120.99 50.31s90.08-19.24 120.99-50.31l60.34 60.34zM577.55 422.51l60.64-60.64 60.64 60.64c-15.47 15.63-36.91 25.32-60.64 25.32s-45.17-9.69-60.64-25.32zM638.19 703.84c94.42 0 179.87-38.34 241.67-100.3l60.34 60.34c-77.24 77.4-184.03 125.29-302.01 125.29-117.98 0-224.77-47.89-302.01-125.29l60.34-60.34c61.8 61.96 147.25 100.3 241.67 100.3zM256 192h85.33v-85.33H256zM384 192h85.33v-85.33H384zM512 192h85.33v-85.33H512z"  horiz-adv-x="1024" />

    
    <glyph glyph-name="wujingongju" unicode="&#59098;" d="M987.603557 724.271824c-8.218172 15.623839-27.65485 21.748327-43.185568 13.437034-2.356674-1.233084-4.491291-2.720971-6.396687-4.40738-1.506307-1.056052-2.946099-2.24718-4.290723-3.592828l-164.085102-163.991981-75.996858 75.996858 164.086126 163.991981c2.337231 2.337231 4.236488 4.945639 5.698792 7.723915 0.693802 1.022283 1.341554 2.089591 1.924839 3.213181 8.156774 15.687284 2.094708 34.998095-13.560854 43.185568-45.310975 23.624047-96.432283 36.123732-147.805324 36.123732-176.428222 0-319.984778-143.555533-319.984778-319.984778 0-30.849612 4.403287-60.688197 12.589736-88.935542l-167.164231-167.138648c-1.809205 0.052189-3.613294 0.085958-5.41636 0.085958-123.494639 0-223.99047-100.494809-223.99047-223.989447 0-123.493615 100.495832-223.989447 223.99047-223.989447s223.988424 100.495832 223.988424 223.989447c0 1.799996-0.032746 3.603061-0.084934 5.41022L615.101681 268.556735c28.235065-8.17724 58.056254-12.57541 88.889493-12.57541 176.428222 0 319.984778 143.555533 319.984778 319.984778C1023.976976 627.588831 1011.383146 678.836005 987.603557 724.271824zM398.323473 142.303262l-20.379143-5.439896c4.124947-15.498996 6.062066-28.499078 6.062066-40.872896 0-88.24481-71.777767-159.992901-159.991878-159.992901s-159.992901 71.747067-159.992901 159.992901 71.77879 159.992901 159.992901 159.992901c12.343119 0 25.343201-1.938142 40.904619-6.062066l5.420453 20.386306 152.686495 152.660912c29.490661-53.936423 74.059739-98.500385 128.001279-127.984906L398.323473 142.303262zM703.992197 319.977871c-141.14974 0-255.988232 114.806769-255.988232 255.988232s114.839515 255.988232 255.988232 255.988232c26.318412 0 52.531424-4.102435 77.481675-11.999288l-155.696038-155.618267c-5.999644-5.999644-9.374508-14.124695-9.374508-22.623253 0-8.499581 3.374864-16.624632 9.374508-22.624277l121.243365-121.244388c6.249331-6.249331 14.436804-9.374508 22.624277-9.374508 8.18645 0 16.373922 3.125177 22.623253 9.374508L947.983187 653.481548c7.895831-24.944112 11.997242-51.16531 11.997242-77.515445C959.980429 434.785663 845.140914 319.977871 703.992197 319.977871zM224.015541 191.984778c-53.060473 0-95.996354-42.935881-95.996354-95.996354s42.935881-95.996354 95.996354-95.996354 95.995331 42.935881 95.995331 95.996354S277.074991 191.984778 224.015541 191.984778zM224.015541 63.990662c-17.656125 0-31.998785 14.343683-31.998785 31.998785s14.34266 31.998785 31.998785 31.998785c17.655102 0 31.998785-14.343683 31.998785-31.998785S241.670643 63.990662 224.015541 63.990662z"  horiz-adv-x="1024" />

    
    <glyph glyph-name="iconset0249" unicode="&#59028;" d="M128 213.333333l213.333333 0L341.333333 554.666667 128 554.666667 128 213.333333zM938.666667 469.333333l0 85.333333c0 46.933333-38.4 85.333333-85.333333 85.333333L128 640c-46.933333 0-85.333333-38.4-85.333333-85.333333l0-341.333333c0-46.933333 38.4-85.333333 85.333333-85.333333l725.333333 0c46.933333 0 85.333333 38.4 85.333333 85.333333l0 85.333333c23.466667 0 42.666667 19.2 42.666667 42.666667l0 85.333333C981.333333 450.133333 962.133333 469.333333 938.666667 469.333333zM896 213.333333c0-23.466667-19.2-42.666667-42.666667-42.666667L128 170.666667c-23.466667 0-42.666667 19.2-42.666667 42.666667L85.333333 554.666667c0 23.466667 19.2 42.666667 42.666667 42.666667l725.333333 0c23.466667 0 42.666667-19.2 42.666667-42.666667L896 213.333333z"  horiz-adv-x="1024" />

    
    <glyph glyph-name="dianchi" unicode="&#58955;" d="M260 649h504v-631H260zM720 649a44 44 0 0 0 44-44v-542.5a44 44 0 0 0-44-44H304a44 44 0 0 0-44 44V605a44 44 0 0 0 44 44h416m0 20H304a64 64 0 0 1-64-64v-542.5a64 64 0 0 1 64-64h416a64 64 0 0 1 64 64V605a64 64 0 0 1-64 64zM280 629l464 0 0-590.5-464 0 0 590.5ZM722 619a12 12 0 0 0 12-12v-546.5a12 12 0 0 0-12-12H302a12 12 0 0 0-12 12V607a12 12 0 0 0 12 12h420m0 20H302a32 32 0 0 1-32-32v-546.5a32 32 0 0 1 32-32h420a32 32 0 0 1 32 32V607a32 32 0 0 1-32 32zM392 659.5v78a22 22 0 0 0 22 22h196a22 22 0 0 0 22-22v-78zM610 749.5a12 12 0 0 0 12-12v-68H402v68a12 12 0 0 0 12 12h196m0 20H414a32 32 0 0 1-32-32v-88h260v88a32 32 0 0 1-32 32zM422 659.5v64a6 6 0 0 0 6 6h168a6 6 0 0 0 6-6v-64zM592 719.5v-50H432v50h160m4 20H428a16 16 0 0 1-16-16v-74h200v74a16 16 0 0 1-16 16zM598.72 347.47l-52-11.55a8 8 0 0 0-9.74 7.81l20 168.82c0 12-15.68 16.57-22.12 6.44l-122.31-180.8A12 12 0 0 1 425.28 320l52 11.55a8 8 0 0 0 9.74-7.81L467 155c0-12 15.68-16.57 22.12-6.44l122.33 180.75a12 12 0 0 1-12.73 18.16z"  horiz-adv-x="1024" />

    
    <glyph glyph-name="dianluban" unicode="&#58893;" d="M756.3264 55.9104H288.1536c-19.6608 0-35.6352 15.9744-35.6352 35.6352V647.7824c0 19.6608 15.9744 35.6352 35.6352 35.6352h468.1728c19.6608 0 35.6352-15.9744 35.6352-35.6352v-556.2368c0-19.6608-15.9744-35.6352-35.6352-35.6352zM288.1536 678.912c-17.2032 0-31.1296-13.9264-31.1296-31.1296v-556.2368c0-17.2032 13.9264-31.1296 31.1296-31.1296h468.1728c17.2032 0 31.1296 13.9264 31.1296 31.1296V647.7824c0 17.2032-13.9264 31.1296-31.1296 31.1296H288.1536zM620.9536 376.2176h-197.4272c-0.4096 0-0.8192 0.4096-0.8192 0.8192v189.8496c0 0.4096 0.4096 0.8192 0.8192 0.8192h197.4272c0.4096 0 0.8192-0.4096 0.8192-0.8192v-189.8496c0-0.6144-0.4096-0.8192-0.8192-0.8192zM618.2912 372.736h-192.1024c-3.6864 0-6.7584 3.072-6.7584 6.7584v184.5248c0 3.6864 3.072 6.7584 6.7584 6.7584h192.1024c3.6864 0 6.7584-3.072 6.7584-6.7584v-184.5248c0-3.6864-3.072-6.7584-6.7584-6.7584z m0 6.7584v-3.4816 3.4816z m0 184.5248h-192.1024v-184.5248h192.1024v184.5248zM192.512 575.0784h62.2592v-16.384H192.512zM789.7088 575.0784H851.968v-16.384h-62.2592zM192.512 519.168h62.2592v-16.384H192.512zM789.7088 519.168H851.968v-16.384h-62.2592zM192.512 463.2576h62.2592v-16.384H192.512zM789.7088 463.2576H851.968v-16.384h-62.2592zM192.512 407.552h62.2592v-16.384H192.512zM789.7088 407.552H851.968v-16.384h-62.2592zM192.512 351.6416h62.2592v-16.384H192.512zM789.7088 351.6416H851.968v-16.384h-62.2592zM192.512 295.7312h62.2592v-16.384H192.512zM789.7088 295.7312H851.968v-16.384h-62.2592zM192.512 236.544h62.2592v-16.384H192.512zM789.7088 236.544H851.968v-16.384h-62.2592zM192.512 180.6336h62.2592v-16.384H192.512zM789.7088 180.6336H851.968v-16.384h-62.2592zM429.056 262.7584H380.928V267.264h48.128c24.1664 0 43.8272 19.6608 43.8272 43.8272v65.1264h4.5056v-65.1264c0-26.624-21.7088-48.3328-48.3328-48.3328zM519.9872 376.2176h4.5056v-163.4304h-4.5056zM695.0912 241.8688h-65.7408c-28.4672 0-51.8144 23.1424-51.8144 51.8144v82.5344h4.5056v-82.5344c0-26.0096 21.0944-47.104 47.104-47.104h65.7408v-4.7104zM366.3872 251.6992c-8.8064 0-15.9744 7.168-15.9744 15.9744s7.168 15.9744 15.9744 15.9744 15.9744-7.168 15.9744-15.9744c-0.2048-8.8064-7.3728-15.9744-15.9744-15.9744z m0 27.2384c-6.3488 0-11.4688-5.12-11.4688-11.4688s5.12-11.4688 11.4688-11.4688 11.4688 5.12 11.4688 11.4688-5.3248 11.4688-11.4688 11.4688zM522.24 185.1392c-8.8064 0-15.9744 7.168-15.9744 15.9744s7.168 15.9744 15.9744 15.9744 15.9744-7.168 15.9744-15.9744-7.168-15.9744-15.9744-15.9744z m0 27.4432c-6.3488 0-11.4688-5.12-11.4688-11.4688s5.12-11.4688 11.4688-11.4688 11.4688 5.12 11.4688 11.4688-5.12 11.4688-11.4688 11.4688zM706.7648 228.7616c-8.8064 0-15.9744 7.168-15.9744 15.9744s7.168 15.9744 15.9744 15.9744 15.9744-7.168 15.9744-15.9744-7.168-15.9744-15.9744-15.9744z m0 27.4432c-6.3488 0-11.4688-5.12-11.4688-11.4688s5.12-11.4688 11.4688-11.4688 11.4688 5.12 11.4688 11.4688-5.3248 11.4688-11.4688 11.4688z"  horiz-adv-x="1024" />

    
    <glyph glyph-name="huabanfuben" unicode="&#59029;" d="M53.031539 503.609963l-31.067523 7.225005A493.901362 493.901362 0 0 0 394.340789 883.283991l7.225005-31.067523A462.400339 462.400339 0 0 1 53.031539 503.609963zM532.33839-106.108234a500.692867 500.692867 0 0 0-112.782333 12.93276 494.045862 494.045862 0 0 0-176.434629 79.475058l18.496014 26.010019a465.218091 465.218091 0 0 1 563.189162 18.351513l20.157765-24.781768a494.118112 494.118112 0 0 0-312.625979-111.987582zM525.619135 377.31687m-351.207507 0a351.207507 351.207507 0 1 1 702.415014 0 351.207507 351.207507 0 1 1-702.415014 0ZM891.421153 137.880195h97.176321V245.171523c0 37.281027-131.856347 93.925069-279.463205 97.971072C647.071474 401.954138 545.99365 440.824667 485.592606 440.824667H373.821774c-66.542299 0-164.946871-47.901785-232.861921-95.803571h-50.575037C74.200804 297.480562 56.716292 216.343752 65.025048 184.553729s30.200522-48.768786 63.580046-48.768786 760.070557 2.095252 762.816059 2.095252zM128.316094 119.817682c-40.60453 0-69.432301 22.180766-79.113808 60.906794s13.07726 131.495096 25.793269 169.715374l3.612503 10.909758h57.366542c69.504551 48.190785 168.703874 95.80357 237.847174 95.803571h111.770832c60.834545 0 162.345869-36.630777 229.971918-98.187822 146.739857-5.346504 289.000212-60.979045 289.000212-113.793834v-123.25859h-198.037395z m-26.515769 209.525153c-15.461511-50.575037-27.59952-117.117336-21.675016-140.959853s21.675016-36.703027 48.118535-36.703027l678.138997 1.878501h166.175121V245.171523c0 18.712764-107.219079 77.813307-263.929443 82.07606h-6.141254l-4.407254 4.190504c-60.979045 57.800042-157.794116 93.925069-212.487405 93.925068H373.821774c-63.218796 0-160.250617-48.118535-223.975164-92.841318l-4.118253-2.890002zM621.928456 297.480562H308.507726l-49.780287 51.658787 22.975517 22.180767 40.38778-41.905031h293.696465l23.553517 9.392507 11.776759-29.694772-29.189021-11.632258zM796.990334 149.367953m-79.836309 0a79.836308 79.836308 0 1 1 159.672617 0 79.836308 79.836308 0 1 1-159.672617 0ZM796.990334 53.636633a95.80357 95.80357 0 1 0 95.80357 95.80357 95.87582 95.87582 0 0 0-95.80357-95.80357z m0 159.600367a63.869047 63.869047 0 1 1 63.869047-63.869047 63.941297 63.941297 0 0 1-63.869047 63.869047zM238.280675 149.367953m-79.836309 0a79.836308 79.836308 0 1 1 159.672617 0 79.836308 79.836308 0 1 1-159.672617 0ZM238.425175 53.636633a95.80357 95.80357 0 1 0 95.80357 95.80357A95.87582 95.87582 0 0 0 238.425175 53.636633z m0 159.600367a63.869047 63.869047 0 1 1 63.869046-63.869047A63.941297 63.941297 0 0 1 238.425175 213.237zM142.549354 409.251393h-31.934523v33.596275c0 59.678544 48.335285 110.036831 105.557327 110.036831h181.781133a30.200522 30.200522 0 0 1 31.934524 29.694771v1.083751a32.946024 32.946024 0 0 1-31.934524 33.018274h-63.869046a62.062795 62.062795 0 0 0-63.869047 61.629296V679.249841a64.447047 64.447047 0 0 0 63.869047 65.025048h223.469413v-31.934524H334.084245A32.946024 32.946024 0 0 1 302.149721 679.249841v-1.083751a30.200522 30.200522 0 0 1 31.934524-29.694771h63.869046a64.447047 64.447047 0 0 0 63.869047-65.025048v-1.083751a62.062795 62.062795 0 0 0-63.869047-61.629295H216.172158c-39.231779 0-73.695054-36.486277-73.695054-78.102307zM765.05581 808.288436h127.665844v-31.934524h-127.665844zM765.05581 680.622592h127.665844v-31.934523h-127.665844zM685.291752 824.255697h-69.793551c-32.006773 0-57.800042-30.345022-57.800043-62.351795V686.474847c0-32.006773 25.937769-53.465039 57.800043-53.46504h69.793551a31.934523 31.934523 0 0 1 31.934523-31.934523h47.901785V856.190221h-47.974035a31.934523 31.934523 0 0 1-31.862273-31.934524zM781.023072 584.819022h-63.869047A47.974035 47.974035 0 0 0 671.925492 616.753545h-56.427291C573.37642 616.753545 541.875397 646.592817 541.875397 686.474847V761.903902c0 41.688281 34.535525 78.319057 73.839554 78.319057H671.925492a47.974035 47.974035 0 0 0 45.228533 31.934524h63.869047zM615.498201 808.288436c-21.675016 0-41.977281-22.108516-41.977281-46.384534V686.474847c0-24.637268 21.097015-37.497777 41.977281-37.497778h85.688563v-15.967262a15.967262 15.967262 0 0 1 15.967261-15.967261h31.934524V840.222959h-31.934524a15.967262 15.967262 0 0 1-15.967261-15.967262v-15.967261zM685.291752 776.353912h31.934523v-95.80357h-31.934523zM621.422705 760.386651h31.934524v-63.869047h-31.934524z"  horiz-adv-x="1024" />

    
    <glyph glyph-name="report" unicode="&#58965;" d="M968-192h-912c-13.248 0-24 10.688-24 24s10.752 24 24 24h912c13.248 0 24-10.752 24-24 0-13.312-10.688-24-24-24zM176 240h-48c-26.496 0-48-21.504-48-48v-240c0-26.56 21.504-48 48-48h48c26.496 0 48 21.504 48 48v240c0 26.496-21.504 48-48 48zM128-48v240h48v-240h-48zM416 528h-48c-26.496 0-48-21.504-48-48v-528c0-26.56 21.504-48 48-48h48c26.496 0 48 21.504 48 48v528c0 26.496-21.504 48-48 48zM368-48v528h48v-528h-48zM656 432h-48c-26.56 0-48-21.44-48-48v-432c0-26.56 21.504-48 48-48h48c26.496 0 48 21.504 48 48v432c0 26.56-21.44 48-48 48zM608-48v432h48v-432h-48zM896 768h-48c-26.496 0-48-21.504-48-48v-768c0-26.496 21.504-48 48-48h48c26.496 0 48 21.504 48 48v768c0 26.496-21.44 48-48 48zM848-48v768h48v-768h-48z"  horiz-adv-x="1024" />

    
    <glyph glyph-name="baobiao" unicode="&#58905;" d="M244.51083 83.704656c0-23.075555-16.553001-41.782615-36.97103-41.782615l0 0c-20.419052 0-36.97103 18.707061-36.97103 41.782615l0 645.675512c0 23.075555 16.553001 41.782615 36.97103 41.782615l0 0c20.419052 0 36.97103-18.707061 36.97103-41.782615L244.51083 83.704656zM416.947134 193.506435c0-24.375154-19.760043-44.135196-44.135196-44.135196l0 0c-24.375154 0-44.135196 19.760043-44.135196 44.135196l0 119.951953c0 24.375154 19.760043 44.135196 44.135196 44.135196l0 0c24.375154 0 44.135196-19.760043 44.135196-44.135196L416.947134 193.506435zM603.109044 193.506435c0-24.375154-19.760043-44.135196-44.135196-44.135196l0 0c-24.375154 0-44.135196 19.760043-44.135196 44.135196L514.838651 599.113289c0 24.375154 19.760043 44.135196 44.135196 44.135196l0 0c24.375154 0 44.135196-19.760043 44.135196-44.135196L603.109044 193.506435zM796.990776 193.506435c0-24.375154-19.760043-44.135196-44.135196-44.135196l0 0c-24.375154 0-44.135196 19.760043-44.135196 44.135196L708.720384 372.115322c0 24.375154 19.760043 44.135196 44.135196 44.135196l0 0c24.375154 0 44.135196-19.760043 44.135196-44.135196L796.990776 193.506435zM217.480196 41.923064c-23.075555 0-41.782615 15.854083-41.782615 35.411511l0 0c0 19.557428 18.707061 35.410488 41.782615 35.410488l625.209388 0c23.075555 0 41.782615-15.854083 41.782615-35.410488l0 0c0-19.557428-18.707061-35.411511-41.782615-35.411511L217.480196 41.923064z"  horiz-adv-x="1024" />

    
    <glyph glyph-name="dianhua" unicode="&#58991;" d="M865.066 215.634c-29.409 21.845-60.375 42.189-87.163 57.303-44.687 25.19-64.881 28.809-77.483 29.164-17.38 0.478-42.803-5.365-65.195-35.963-10.786-14.746-18.759-31.881-26.487-48.442-2.526-5.434-7.413-15.92-11.619-23.566-10.117 4.519-29.027 14.569-59.065 36.277-36.073 26.037-75.066 59.569-104.052 89.402-28.413 30.857-59.719 71.666-83.763 109.131-20.002 31.198-28.986 50.654-32.932 61.003 7.878 3.769 18.651 8.069 24.331 10.336 16.916 6.772 34.406 13.762 49.67 23.702 31.812 20.657 39.062 45.725 39.54 63.106 0.355 12.589-2.157 32.959-24.821 78.971-13.557 27.511-32.154 59.556-52.361 90.208-15.087 22.883-38.202 55.774-62.587 82.521-29.628 32.495-53.371 47.268-76.977 47.923-54.122 1.502-91.654-45.779-110.128-69.045-22.201-27.962-74.083-100.707-76.049-171.773-1.829-65.781 38.667-150.269 72.963-209.551 45.233-78.179 108.407-162.762 178.012-238.278l22.829-24.126c71.447-73.591 152.385-141.366 227.888-190.846 57.276-37.547 139.373-82.671 205.182-84.486 77.51-2.157 128.71 25.572 152.331 42.271 29.71 21.026 98.973 75.599 100.434 128.15 0.655 23.606-12.78 48.114-43.568 79.503-25.313 25.819-56.894 50.75-78.93 67.106zM871.333-36.816c-20.849-14.746-66.205-39.199-135.796-37.274-59.42 1.652-136.642 44.442-190.97 80.049-73.878 48.401-153.177 114.825-223.396 187.147l-22.323 23.62c-68.171 73.961-130.076 156.822-174.325 233.308-32.535 56.238-70.957 135.714-69.305 195.12 1.747 62.86 49.63 129.707 70.588 156.098 15.278 19.251 47.076 59.296 87.546 58.177 15.374-0.423 33.655-12.834 57.549-39.035 23.211-25.423 45.425-57.071 59.966-79.135 19.606-29.737 37.601-60.73 50.668-87.259 22.582-45.847 22.159-61.126 22.022-66.15-0.45-15.988-9.312-29.395-27.116-40.96-13.025-8.465-29.259-14.964-45.070-21.299-15.961-6.377-30.925-12.575-38.585-18.323l-6.909-5.216 1.761-8.479c1.611-7.796 8.71-31.143 39.635-79.366 24.835-38.735 57.235-80.924 86.903-113.146 30.283-31.17 70.628-65.85 107.916-92.774 46.421-33.559 69.345-41.93 77.033-43.978l8.369-2.225 5.584 6.622c6.172 7.318 13.175 21.914 20.439 37.492 7.154 15.374 14.555 31.252 23.771 43.827 12.533 17.135 26.405 25.245 42.394 24.809 5.024-0.137 20.303-0.56 64.826-25.668 25.833-14.569 55.774-34.242 84.295-55.433 21.259-15.783 51.637-39.745 75.708-64.279 24.835-25.313 36.195-44.265 35.772-59.625-0.942-32.891-46.558-76.663-88.951-106.646zM658.996 551.97c23.511-28.017 34.215-62.97 30.119-98.4l26.064-2.99c4.915 42.653-7.891 84.665-36.085 118.266-27.744 33.082-67.188 54.081-111.070 59.133l-2.99-26.064c37.178-4.301 70.547-22.022 93.963-49.943zM766.735 640.321c41.028-48.879 59.693-109.827 52.565-171.609l26.064-3.004c7.959 69.004-12.82 137.011-58.518 191.488-45.247 53.945-109.664 88.228-181.385 96.489l-3.004-26.064c65.018-7.509 123.372-38.489 164.277-87.299zM912.525 732.358c-70.779 84.364-171.595 137.967-283.893 150.91l-3.004-26.064c105.595-12.192 200.349-62.505 266.8-141.722 66.546-79.312 96.83-178.176 85.265-278.351l26.064-2.99c12.397 107.397-20.002 213.306-91.232 298.217z"  horiz-adv-x="1024" />

    
    <glyph glyph-name="jiantou1" unicode="&#59044;" d="M313.987-127.944c-5.644 0-11.313 1.898-15.984 5.769-10.589 8.841-12.013 24.575-3.197 35.189l378.909 454.581-380.832 464.621c-8.741 10.664-7.193 26.398 3.496 35.139 10.689 8.741 26.398 7.168 35.139-3.496l393.894-480.579c7.592-9.265 7.542-22.602-0.125-31.817l-392.145-470.465c-4.895-5.894-12.013-8.941-19.155-8.941z"  horiz-adv-x="1024" />

    
    <glyph glyph-name="ai215" unicode="&#59083;" d="M784.676549 735.84967l-546.237233 0c-42.931745 0-78.019857-35.089134-78.019857-78.019857l0-156.088832 0-234.116875 0-156.039713c0-42.972678 35.089134-78.069998 78.019857-78.069998l546.237233 0c42.930722 0 78.068975 35.097321 78.068975 78.069998l0 546.245419C862.745524 700.761559 827.607271 735.84967 784.676549 735.84967M472.539817 189.604251l0 117.067135-234.100502 0 0 156.088832 234.100502 0 0 117.049739 195.069596-195.127924L472.539817 189.604251z"  horiz-adv-x="1024" />

    
    <glyph glyph-name="jiantou3" unicode="&#58885;" d="M249.355819 361.56333l479.10044-479.135439c13.942373-13.906374 36.478358-13.906374 50.419731 0 13.942373 13.942373 13.942373 36.513357 0 50.455729l-455.709493 455.744491 448.184832 448.22083c13.55039 13.515392 13.55039 35.444405 0 48.958797-13.514392 13.585389-35.444405 13.585389-48.992795 0l-465.479053-465.443055c-1.818918-1.818918-2.709878-4.029819-4.029819-6.132724-1.10495-0.819963-2.460889-1.247944-3.494843-2.281897-13.906374-13.906374-13.906374-36.478358 0-50.384733z"  horiz-adv-x="1024" />

    
    <glyph glyph-name="jiantou" unicode="&#58892;" d="M398.499 659.5l274.256-274.256-274.256-274.256z"  horiz-adv-x="1024" />

    
    <glyph glyph-name="cangku" unicode="&#59321;" d="M956.23871 324.54591 956.23871 324.54591l0 5.01113L756.523109 419.453467 756.523109 670.117436l0 0 0 33.94409 0 0 0 4.071735L526.933107 811.476955l-229.590002-103.343693 0-276.729625-3.324722 1.497097L64.427358 329.556017l0-265.107937 229.590002-103.343693 216.315674 97.368608 216.315674-97.368608 229.590002 103.343693L956.23871 290.60182l0 0L956.23871 324.54591zM726.648708 243.413078l-150.130276 67.577095 150.131299 67.577095 150.130276-67.577095L726.648708 243.413078zM346.887498 647.816524l155.274436-69.892837L502.161934 364.727051l-155.274436 69.891813L346.887498 647.816524zM706.977693 434.618864l-155.270343-69.89079L551.70735 577.924711l155.270343 69.89079L706.977693 434.618864zM676.020634 690.036092l-149.087527-67.107397L377.845581 690.036092l149.087527 67.107397L676.020634 690.036092zM450.072579 308.322413l-156.055219-70.243831L137.962142 308.322413l156.055219 70.243831L450.072579 308.322413zM113.972774 262.966413l155.269319-69.89079 0-166.486802-155.269319 69.89079L113.972774 262.966413zM318.78751 26.585751 318.78751 193.073576l155.275459 69.89386 0-166.486802L318.78751 26.585751zM546.603099 268.299885l155.286716-69.897953 0-171.820274L546.603099 96.479611 546.603099 268.299885zM906.693294 96.479611l-155.258063-69.88465L751.435231 198.415234l155.258063 69.885674L906.693294 96.479611z"  horiz-adv-x="1024" />

    
    <glyph glyph-name="shebeiguanli" unicode="&#58933;" d="M885.312 122.688 138.688 122.688C90.432 122.688 64 150.4 64 197.248L64 682.688c0 46.848 26.432 74.688 74.688 74.688l746.688 0C933.568 757.312 960 729.472 960 682.688l0-485.376C960 150.4 933.568 122.688 885.312 122.688zM885.312 682.688 138.688 682.688l0-485.312 746.688 0L885.376 682.688zM472.384 305.728 446.016 332.16l-105.6 105.6 52.8 52.8 79.168-79.168 158.4 158.4 52.8-52.8L498.816 332.16 472.384 305.728zM307.2 67.264l83.2 0 9.6 18.048 224 0 9.6-18.048 83.2 0c16.128 0 29.184-12.672 29.184-28.288 0-15.616-13.056-28.288-29.184-28.288L307.2 10.688c-16.128 0-29.12 12.672-29.12 28.288C278.08 54.592 291.072 67.264 307.2 67.264z"  horiz-adv-x="1024" />

    
    <glyph glyph-name="baobiao1" unicode="&#58964;" d="M832.012919 801.929508c-14.678304-3.25002-29.331026-6.622838-44.008306-9.880021-27.132964-6.021134-54.271044-12.017708-81.418334-17.972327-15.370059-3.373841-30.78105-6.573719-46.1419-9.985422-13.364379-2.968611-26.680663-6.126534-40.693818-9.358135 22.417569-21.664416 44.360324-42.872436 66.441225-64.212464-14.373359-15.196097-28.264741-29.904077-42.182728-44.588521-7.336082-7.741311-14.69263-15.465227-22.077831-23.160489-17.740036-18.476817-35.46063-36.973076-53.270251-55.384401-14.490016-14.979156-29.098735-29.843702-43.652196-44.760436-0.623193-0.63752-1.216711-1.301645-1.828648-1.948375-8.165983-8.616238-16.334014-17.2335-24.725124-26.087145-31.022551 28.303626-61.489446 56.100716-92.359524 84.268242-11.526521-12.047384-23.045879-24.166399-34.651194-36.199457-12.237719-12.68695-24.558325-25.294083-36.842093-37.938054-11.910261-12.261255-23.813359-24.523533-35.723619-36.784788-12.407588-12.769838-24.823362-25.53456-37.225833-38.310537-11.535731-11.876492-23.010063-23.810289-34.599006-35.635615-21.084201-21.516036-42.259476-42.942021-63.335491-64.46829-9.212826-9.403161-18.283412-18.945491-27.375487-28.464285-0.673335-0.704035-1.020236-1.721201-1.485841-2.536776 11.886725-11.390421 23.570835-22.520923 35.177174-33.731242 5.109368-4.934382 5.107321-5.074575 10.219759 0.207731 6.547113 6.767124 12.93459 13.688767 19.456121 20.478404 10.109242 10.526751 20.271696 20.998243 30.416753 31.490202 10.764158 11.130502 21.540595 22.248723 32.302707 33.383318 9.893324 10.237155 19.766183 20.491707 29.661553 30.726815 10.762111 11.132548 21.4925 22.298865 32.317033 33.373085 18.812461 19.240203 37.686321 38.422078 56.535621 57.629535 0.62524 0.638543 1.257643 1.2689 1.871627 1.915629 8.495488 8.986675 16.989953 17.97335 25.341155 26.809599 31.712259-28.323069 62.815651-56.105832 94.433766-84.342943 8.413624 8.945743 16.382109 17.514909 24.458041 25.986861 15.950274 16.733103 31.956829 33.410947 47.941895 50.106188 16.234753 16.95516 32.472576 33.905204 48.707328 50.859341 15.988136 16.694217 31.918967 33.444716 47.974641 50.075489 14.224979 14.736633 28.630061 29.303396 42.86732 44.030819 4.26821 4.412496 8.238638 9.109472 12.56927 13.923104 24.399713-23.01825 48.229444-45.49824 72.64246-68.529793 1.336438 7.110955 2.520403 13.071713 3.564175 19.058055 2.707668 15.528672 5.326309 31.072693 8.033977 46.601364 2.285043 13.107529 4.691859 26.192545 6.968715 39.300075 2.667759 15.359826 5.230118 30.737048 7.880481 46.098921 2.709715 15.699564 5.395894 31.403221 8.245801 47.079248 1.25969 6.933923 2.888793 13.802354 4.352121 20.700461 0 0.357134 0 0.714268 0 1.071402C836.532863 802.535305 834.231447 802.420695 832.012919 801.929508zM712.8264-0.412137c32.260751 0 64.178695 0 96.495728 0 0 165.071569 0 329.72256 0 494.169913-32.485879 0-64.530712 0-96.495728 0C712.8264 328.828446 712.8264 164.305369 712.8264-0.412137zM538.228873-0.260687c32.42755 0 64.47136 0 96.704482 0 0 127.959324 0 255.576863 0 383.626237-32.556487 0-64.726164 0-96.704482 0C538.228873 255.184169 538.228873 127.44281 538.228873-0.260687zM358.281501-0.216685c32.473599 0 64.514339 0 96.517217 0 0 102.062514 0 203.734124 0 305.606303-32.249495 0-64.163345 0-96.517217 0C358.281501 203.205331 358.281501 101.410923 358.281501-0.216685zM197.580472-0.212592c32.477692 0 64.520479 0 96.504938 0 0 69.924559 0 139.457192 0 209.1863-32.255635 0-64.168462 0-96.504938 0C197.580472 138.913049 197.580472 69.254549 197.580472-0.212592z"  horiz-adv-x="1024" />

    
    <glyph glyph-name="zhiliang" unicode="&#58908;" d="M929.048 586.556c-2.29 87.53-12.719 146.574-12.778 147.202a16.2 16.2 0 0 1-6.36 11.422 16.304 16.304 0 0 1-12.745 3.045c-0.55-0.099-45.037-14.962-102.819-14.962-33.24 0-71.504 12.189-92.138 18.502-60.36 18.461-105.611 42.6-132.947 58.762-29.658 17.534-45.222 30.874-45.376 31.006a16.314 16.314 0 0 1-10.678 3.966 16.252 16.252 0 0 1-10.669-3.97c-0.154-0.133-15.706-13.472-45.341-31.006-27.312-16.162-72.53-40.299-132.842-58.758-20.618-6.312-55.874-19.502-89.086-19.502-57.861 0-105.17 15.861-105.722 15.962a16.304 16.304 0 0 1-12.747-3.045 16.196 16.196 0 0 1-6.36-11.424c-0.058-0.627-8.155-59.672-10.442-147.2-2.115-80.883-1.285-190.078 13.118-298.098 6.715-50.357 33.957-95.003 77.029-145.834 33.714-39.786 78.474-79.496 133.03-118.027C415.484-40.59 503.94-79.486 507.618-81.11a16.319 16.319 0 0 1 13.177-0.003c3.682 1.624 90.21 40.522 182.584 105.707 54.6 38.53 99.392 78.238 133.128 118.027 43.106 50.832 70.368 99.474 77.085 149.83 7.959 59.623 19.292 147.566 15.456 294.105z m-78.584-285.619c-4.856-36.398-26.632-74.629-62.461-116.88-30.251-35.678-71.048-71.733-121.254-107.163-63.066-44.502-123.253-76.04-152.731-90.533-30.342 14.627-91.202 46.042-154.189 90.523-50.168 35.43-90.934 71.485-121.165 107.16-37.734 44.531-57.802 78.294-62.416 112.894-14.586 109.379-14.434 216.955-12.578 287.941 0.917 35.077 3.618 65.33 5.31 88.846 19.37-3.088 41.973-5.394 66.288-5.394 38.266 0 74.507 11.658 98.49 19.371 3.376 1.086 6.563 2.11 9.174 2.91 50.91 15.582 100.237 37.397 146.61 64.837a528.45 528.45 0 0 1 23.68 14.846 530.823 530.823 0 0 1 23.71-14.854c46.411-27.44 95.771-49.253 146.704-64.829l2.632-0.808c23.314-7.155 66.71-20.474 108.077-20.474 23.752 0 45.544 2.088 64.162 4.914 1.978-23.568 5.946-54.086 6.869-89.37 3.768-143.961-7.473-228.195-14.912-283.937zM682.487 247.11c25.998 43.464 41.595 92.979 41.595 148.738 0 154.488-78.851 242.677-207.978 242.677-130.846 0-207.979-89.68-207.979-242.677 0-151.187 81.589-237.456 207.979-237.456 53.362 0 97.896 15.654 132.587 46.968l46.795-44.357c5.2-3.467 12.106-6.078 20.797-7.83 15.6 1.752 24.251 8.683 25.998 20.874 0 6.933-3.494 14.76-10.398 23.485l-49.396 49.578z m-44.194 41.75l-31.197 31.314c-6.949 6.933-14.747 10.438-23.398 10.438-15.6-3.506-24.291-12.192-25.998-26.094-1.747-8.723 2.6-16.555 12.998-23.485l38.997-36.531c-24.29-26.094-55.486-33.178-93.59-33.178-93.59 3.467-149.566 60.93-149.566 184.525 0 119.477 55.976 185.267 149.566 190.486 91.843-5.219 149.566-69.678 149.565-190.488-0.001-41.016-13.527-75.673-27.377-106.987z"  horiz-adv-x="1024" />

    
    <glyph glyph-name="baobiaobiaoweiguanli" unicode="&#58886;" d="M569.6 780.8L569.6 896 454.4 896l0-115.2L0 780.8l0-115.2 57.6 0 0-576 358.4 0L192-83.2 230.4-128l275.2 224 0 0 275.2-224 38.4 44.8-217.6 179.2 364.8 0 0 576L1024 672 1024 780.8 569.6 780.8zM908.8 153.6L115.2 153.6l0 512 793.6 0L908.8 153.6zM281.6 268.8L281.6 441.6l172.8 0c0 83.2-70.4 147.2-153.6 147.2-83.2 0-153.6-70.4-153.6-153.6C153.6 352 198.4 268.8 281.6 268.8zM339.2 211.2C428.8 211.2 512 300.8 512 384L339.2 384 339.2 211.2zM793.6 556.8L627.2 556.8l0-57.6 172.8 0L800 556.8zM793.6 441.6L627.2 441.6 627.2 384l172.8 0L800 441.6zM793.6 326.4L627.2 326.4l0-57.6 172.8 0L800 326.4z"  horiz-adv-x="1024" />

    
    <glyph glyph-name="zhiliang-xianxing" unicode="&#59531;" d="M512 761.6l289.6-133.6V424c0-96.8-31.2-193.6-88.8-272.8-52.8-73.6-124-126.4-200.8-150.4-77.6 24-148 76.8-200.8 150.4-57.6 79.2-88.8 176-88.8 272.8V628L512 761.6m0 71.2L158.4 669.6v-244.8c0-226.4 151.2-437.6 353.6-489.6 203.2 51.2 353.6 263.2 353.6 489.6V669.6L512 832.8z m191.2-447.2c0 106.4-85.6 192-192 192s-192-85.6-192-192 85.6-192 192-192c24 0 46.4 4.8 68 12l58.4-58.4 45.6 45.6-47.2 47.2c40.8 35.2 67.2 87.2 67.2 145.6z m-192-128c-70.4 0-128 57.6-128 128s57.6 128 128 128 128-57.6 128-128c0-40.8-19.2-76.8-48.8-100l-43.2 43.2-45.6-45.6 24.8-24.8c-4.8 0-10.4-0.8-15.2-0.8z"  horiz-adv-x="1024" />

    
    <glyph glyph-name="shishi" unicode="&#58984;" d="M944.64 545.28c-7.68 17.92-15.36 38.4-25.6 56.32-12.8 23.04-43.52 28.16-64 7.68l-104.96-104.96-122.88-122.88-38.4-38.4c-25.6 28.16-71.68 74.24-161.28 161.28-10.24 10.24-25.6 10.24-35.84 0l-179.2-179.2c-10.24-10.24-10.24-25.6 0-35.84 5.12-5.12 12.8-7.68 17.92-7.68s12.8 2.56 17.92 7.68l161.28 161.28c64-61.44 148.48-145.92 158.72-158.72 5.12-7.68 12.8-10.24 20.48-10.24 7.68 0 15.36 5.12 20.48 10.24l271.36 271.36c7.68-15.36 12.8-30.72 20.48-48.64 17.92-51.2 25.6-107.52 20.48-166.4-15.36-186.88-161.28-340.48-348.16-368.64-261.12-38.4-486.4 174.08-468.48 430.08 12.8 207.36 184.32 373.76 389.12 384 64 2.56 125.44-10.24 179.2-33.28 12.8-5.12 28.16 0 33.28 12.8 7.68 12.8 0 30.72-12.8 35.84-69.12 30.72-148.48 43.52-232.96 33.28-215.04-23.04-386.56-197.12-407.04-412.16-28.16-291.84 215.04-535.04 506.88-504.32 212.48 23.04 386.56 194.56 409.6 409.6 7.68 74.24-2.56 145.92-25.6 209.92z"  horiz-adv-x="1024" />

    
    <glyph glyph-name="icon-test" unicode="&#58881;" d="M832 832h-64v32c0 17.673-14.327 32-32 32s-32-14.327-32-32v-32h-384v32c0 17.673-14.327 32-32 32s-32-14.327-32-32v-32h-64c-70.692 0-128-57.308-128-128v-640c0-70.692 57.308-128 128-128h640c70.692 0 128 57.308 128 128v640c0 70.692-57.308 128-128 128zM896 64c0-35.346-28.654-64-64-64h-640c-35.346 0-64 28.654-64 64v640c0 35.346 28.654 64 64 64h64v-32c0-17.673 14.327-32 32-32s32 14.327 32 32v32h384v-32c0-17.673 14.327-32 32-32s32 14.327 32 32v32h64c35.346 0 64-28.654 64-64v-640zM742.4 598.72l-189.12-189.184c-0.704-0.64-0.96-1.6-1.6-2.368-11.677 5.567-25.375 8.823-39.834 8.832-21.798-0-41.766-7.68-57.958-20.032l-119.296 103.68c-5.29 4.44-12.173 7.137-19.686 7.137-16.966 0-30.72-13.754-30.72-30.72 0-9.042 3.906-17.172 10.124-22.793l125.275-108.824c-2.26-7.625-3.57-16.389-3.592-25.455 0.008-52.012 42.989-94.993 96.008-94.993 53.019 0 96 42.981 96 96-0.137 15.15-3.717 29.432-9.992 42.146 1.16-0.61 1.928-0.354 2.568 0.222l189.12 189.12c6.847 6.154 11.133 15.040 11.133 24.927 0 18.486-14.986 33.472-33.472 33.472-9.903 0-18.801-4.3-24.929-11.135zM512 288c-17.6 0-32 14.4-32 32s14.4 32 32 32 32-14.4 32-32-14.4-32-32-32z"  horiz-adv-x="1024" />

    
    <glyph glyph-name="renliziyuanzhutifenxi" unicode="&#58945;" d="M560 448a192 192 0 1 1 0 384 192 192 0 0 1 0-384z m0 320.256a128.256 128.256 0 1 0 0-256.576 128.256 128.256 0 0 0 0 256.576zM368 448c7.424 0 14.464 1.344 21.632 2.176a255.744 255.744 0 0 0-52.224 65.6 128 128 0 0 0-97.664 124.16 128 128 0 0 0 97.664 124.16c13.824 24.704 31.296 46.784 52.224 65.6C382.464 830.656 375.424 832 368 832a192 192 0 1 1 0-384z m-36.16-67.648C172.352 362.176 48 228.352 48 64a32 32 0 0 1 64 0c0 93.312 50.496 174.208 125.12 218.944a370.56 370.56 0 0 0 94.72 97.408zM727.68 256h86.848c-58.432 77.312-150.208 128-254.592 128a320 320 0 0 1-320-320 32 32 0 0 1 64 0 256 256 0 0 0 256 256c64.576 0 122.752-24.64 167.744-64z m210.944-111.296a31.488 31.488 0 0 1-26.624 15.296c-0.704 0-1.28-0.384-1.92-0.384-0.96-0.064-1.856 0.448-2.816 0.384H816a32 32 0 0 1 0-64h15.616l-80.128-80.192-134.848 134.912a33.28 33.28 0 0 1-25.088 9.472 32.768 32.768 0 0 1-24.704-9.408l-157.696-157.76a33.152 33.152 0 0 1 46.848-46.848l135.296 135.232 135.104-135.104c6.848-6.848 16-9.92 25.088-9.472a32.96 32.96 0 0 1 25.088 9.472l103.424 103.424v-17.728a32 32 0 0 1 64 0V128a30.848 30.848 0 0 1-5.376 16.704z"  horiz-adv-x="1024" />

    
    <glyph glyph-name="dianhua1" unicode="&#58887;" d="M408.283 467.897c29.865 29.895 55.898 48.296 2.968 114.189-52.933 65.89-88.241 15.292-117.212-13.681-33.379-33.406-1.759-157.93 121.33-281.043 123.087-123.055 247.642-154.734 281.05-121.299 28.97 28.944 79.54 64.22 13.68 117.18-65.86 52.96-84.294 26.927-114.188-2.964-20.908-20.822-73.697 22.75-119.314 68.338-45.618 45.588-89.22 98.403-68.314 119.28zM512-102.4c268.631 0 486.4 217.769 486.4 486.4S780.631 870.4 512 870.4 25.6 652.631 25.6 384 243.369-102.4 512-102.4z m0-25.6C229.23-128 0 101.23 0 384S229.23 896 512 896s512-229.23 512-512-229.23-512-512-512z"  horiz-adv-x="1024" />

    
    <glyph glyph-name="chengbentongjifenxi" unicode="&#58906;" d="M853.12 214.88a15.488 15.488 0 0 1-21.632-3.552l-67.616-94.624-67.552 94.624a15.424 15.424 0 0 1-21.632 3.552 15.36 15.36 0 0 1-3.552-21.504l58.752-82.24h-38.176c-8.576 0-15.424-7.008-15.424-15.552s6.88-15.488 15.424-15.488h56.672v-17.12h-56.672c-8.576 0-15.424-6.944-15.424-15.488s6.848-15.488 15.392-15.488h56.672v-38.24a15.456 15.456 0 0 1 30.976 0V32h56.736a15.456 15.456 0 1 1 0 30.912h-56.736v17.12h56.736a15.52 15.52 0 0 1 0 31.04h-38.176l58.752 82.24a15.296 15.296 0 0 1-3.52 21.568z m0 0M526.784 42.304c-13.504 13.184-28.704 22.048-46.72 22.368h-1.024c-38.816 0-66.08-39.328-92.384-77.376-9.536-13.888-19.424-28.128-28.608-38.496-8.48-9.632-12.064-13.44-15.104-13.248-1.952 0.064-6.112 4.064-13.504 13.312-8.128 10.176-16.32 23.36-25.056 37.312-23.936 38.304-48.704 78.016-87.328 78.496h-0.448c-13.024 0-26.144-6.624-46.816-23.488-12.096-9.888-27.168-23.552-44.704-40.864-9.344-9.184-18.688-18.688-27.584-27.744V831.776c0 2.464 2.048 4.512 4.576 4.512h754.88c2.56 0 4.64-2.016 4.64-4.512v-515.84c21.44-10.048 41.312-23.072 58.752-38.752V831.776c0 34.944-28.384 63.36-63.36 63.36H102.048a63.424 63.424 0 0 1-63.328-63.36v-925.824a32.416 32.416 0 0 1 56.32-21.888 2283.36 2283.36 0 0 0 65.248 68.384c34.144 34.016 53.024 51.872 57.92 51.744 4.096-0.128 6.08-5.248 11.36-11.872 8.128-10.176 16.288-23.36 24.992-37.376 23.872-38.112 48.544-77.632 86.944-78.496 0.416 0 0.8-0.064 1.248 0 38.784 0 66.016 39.328 92.32 77.376 9.568 13.824 19.488 28.192 28.64 38.56 8.64 9.76 13.344 13.568 15.2 13.312 3.104-0.448 6.144-3.808 13.888-13.12 8.288-10.112 16.736-23.264 25.696-37.12 23.872-36.928 48.544-75.136 85.728-77.44l3.328-0.064c12.672 0 24.448 4 35.552 10.56a240.416 240.416 0 0 0-116.32 153.792z m0 0M880.992-127.136c21.76 0 39.328 17.632 39.328 39.264v6.816a236.8 236.8 0 0 0-60.672-39.616 38.4 38.4 0 0 1 21.344-6.464z m0 0M254.432 738.912c0 16.288-13.184 29.472-29.376 29.472s-29.344-13.184-29.344-29.472v-532.224h350.496a242.208 242.208 0 0 0 42.048 58.752H254.432V738.912z m0 0M722.176 682.88a29.376 29.376 0 0 1-25.504-14.784h-0.128L580.16 460.16l-143.552 29.28h-0.032l-153.472-110.272a29.152 29.152 0 0 1-12.8-24.192 29.376 29.376 0 0 1 46.72-23.712l132.96 95.52 160.352-32.736 0.128-0.032v0.032l136.32 243.456a29.312 29.312 0 0 1-24.608 45.376z m0 0M760.448 321.312a223.264 223.264 0 1 1 0-446.528 223.264 223.264 0 0 1 0 446.528z m0-409.504c-102.88 0-186.24 83.36-186.24 186.24s83.36 186.24 186.24 186.24a186.24 186.24 0 0 0 0-372.48z m0 0"  horiz-adv-x="1024" />

    
    <glyph glyph-name="location" unicode="&#58897;" d="M512.103132 575.879021a106.221743 106.221743 0 1 0-75.507022-31.354611A106.221743 106.221743 0 0 0 512.103132 575.879021m0 63.989002a170.850635 170.850635 0 1 1 120.939214-49.911422A169.570855 169.570855 0 0 1 512.103132 639.868023zM805.172761 771.685367a407.609942 407.609942 0 0 1-586.139257 0 431.285873 431.285873 0 0 1 0-599.576948L512.103132-128l293.069629 300.108419a431.285873 431.285873 0 0 1 0 599.576948z m-44.152411-557.344207l-248.917218-255.956007-248.917217 255.956007a365.377201 365.377201 0 0 0 0 508.712565 346.82039 346.82039 0 0 0 497.834435 0 365.377201 365.377201 0 0 0 0-508.712565z"  horiz-adv-x="1024" />

    
    <glyph glyph-name="drxx86" unicode="&#59171;" d="M0 191.877156a85.17211 85.17211 0 0 1 85.17211-85.17211h363.041302V48.125133000000005a95.577753 95.577753 0 0 1-26.592197-26.206803H159.938578a53.569789 53.569789 0 0 1 0-106.754184h261.682637a95.963147 95.963147 0 0 1 159.553183 0h282.879316a53.569789 53.569789 0 1 1 0 106.754184h-282.879316a90.567628 90.567628 0 0 1-26.592197 26.206803v58.579913h385.394163a85.17211 85.17211 0 0 1 85.172111 85.17211V810.820182A85.17211 85.17211 0 0 1 938.820182 895.992292H85.17211A85.17211 85.17211 0 0 1 0 810.820182zM154.157665 448.164274h716.833144a47.403482 47.403482 0 0 0 47.018088-47.018088v-141.054263a47.018088 47.018088 0 0 0-47.018088-46.632694H154.157665a46.632694 46.632694 0 0 0-47.403482 46.632694v141.054263A47.018088 47.018088 0 0 0 154.157665 448.164274zM870.605415 193.804126H154.157665a66.67319 66.67319 0 0 0-66.67319 66.287797v141.054263A66.287796 66.287796 0 0 0 154.157665 467.433982h716.833144a67.058584 67.058584 0 0 0 47.018088-19.269708 67.829373 67.829373 0 0 0 19.269708-47.018088v-141.054263a66.67319 66.67319 0 0 0-66.67319-66.287797zM154.157665 428.509172a27.362986 27.362986 0 0 1-27.748379-27.362986v-141.054263a27.362986 27.362986 0 0 1 27.748379-27.362986h716.833144a27.362986 27.362986 0 0 1 27.362986 27.362986v141.054263a26.977591 26.977591 0 0 1-7.707883 19.269708 27.362986 27.362986 0 0 1-19.655103 8.093278H154.157665zM154.157665 789.238109h716.833144a46.632694 46.632694 0 0 0 33.143898-13.488796 47.403482 47.403482 0 0 0 13.87419-33.529292v-140.66887a47.403482 47.403482 0 0 0-47.018088-47.018088H154.157665a47.403482 47.403482 0 0 0-33.529292 13.87419 48.17427 48.17427 0 0 0-13.488796 33.143898V741.834627a48.559665 48.559665 0 0 0 13.488796 33.529292A47.018088 47.018088 0 0 0 154.157665 789.238109zM154.157665 535.263355a65.902402 65.902402 0 0 0-66.67319 66.287796V741.834627a64.746219 64.746219 0 0 0 19.269708 47.018088A70.141738 70.141738 0 0 0 154.157665 808.893211h716.833144a71.683314 71.683314 0 0 0 47.018088-19.655102A66.287796 66.287796 0 0 0 936.893211 741.834627v-140.283476a65.902402 65.902402 0 0 0-66.287796-66.287796H154.157665z m0 234.705046a25.821409 25.821409 0 0 1-19.269708-8.093278 28.133774 28.133774 0 0 1-8.093277-19.269708v-141.054264a28.904562 28.904562 0 0 1 8.093277-19.655102 20.811285 20.811285 0 0 1 19.269708-7.707883h716.44775a26.206803 26.206803 0 0 1 27.362986 27.362985V741.834627a28.133774 28.133774 0 0 1-7.707884 19.655102 28.904562 28.904562 0 0 1-19.655102 8.093278H154.157665zM704.885925 678.629984a53.569789 53.569789 0 1 1 53.184394 53.569789 53.184395 53.184395 0 0 1-53.184394-53.569789zM704.885925 337.556149a53.569789 53.569789 0 1 1 53.184394 53.184395 53.184395 53.184395 0 0 1-53.184394-53.184395z"  horiz-adv-x="1025" />

    
    <glyph glyph-name="kaifa" unicode="&#59006;" d="M159.232 627.370667m-17.066667 0a17.066667 17.066667 0 1 1 34.133334 0 17.066667 17.066667 0 1 1-34.133334 0ZM273.066667 627.370667m-17.066667 0a17.066667 17.066667 0 1 1 34.133333 0 17.066667 17.066667 0 1 1-34.133333 0ZM216.234667 627.370667m-17.066667 0a17.066667 17.066667 0 1 1 34.133333 0 17.066667 17.066667 0 1 1-34.133333 0ZM341.333333 379.733333l51.2 51.2a17.066667 17.066667 0 1 1-24.234666 24.234667l-63.488-63.658667a17.066667 17.066667 0 0 1 0-24.064l63.488-63.658666a17.066667 17.066667 0 0 1 24.234666 0 17.066667 17.066667 0 0 1 0 24.064zM585.728 304.128a17.066667 17.066667 0 0 1 24.064 0L673.450667 366.933333a17.066667 17.066667 0 0 1 0 24.064l-63.658667 63.658667a17.066667 17.066667 0 0 1-24.064-24.234667l51.2-51.2-51.2-51.2a17.066667 17.066667 0 0 1 0-23.893333zM529.066667 449.706667a17.066667 17.066667 0 0 1-23.381334-6.314667L442.709333 332.8a17.066667 17.066667 0 1 1 29.525334-17.066667l63.658666 110.08a17.066667 17.066667 0 0 1-6.826666 23.893334zM953.344 213.333333a4.949333 4.949333 0 0 0-4.608 3.242667 178.005333 178.005333 0 0 1-28.501333 49.322667 4.949333 4.949333 0 0 0 0 5.632 39.253333 39.253333 0 0 1-14.336 53.589333l-12.8 7.68V644.437333a51.2 51.2 0 0 1-51.2 51.2H136.533333a51.2 51.2 0 0 1-51.2-51.2v-432.469333a39.936 39.936 0 0 1 39.765334-39.765333H358.4l-17.066667-63.146667h-22.698666a73.898667 73.898667 0 0 1-71.850667-56.832H204.8a17.066667 17.066667 0 0 1 0-34.133333h434.688a36.181333 36.181333 0 0 1 1.194667-12.117334 38.4 38.4 0 0 1 18.261333-23.893333l36.010667-20.821333a39.253333 39.253333 0 0 1 53.589333 14.506666 5.290667 5.290667 0 0 0 5.290667 2.389334 166.229333 166.229333 0 0 1 56.661333 0 5.12 5.12 0 0 0 5.290667-2.56 39.253333 39.253333 0 0 1 34.133333-19.456 38.741333 38.741333 0 0 1 19.626667 5.12l36.010666 20.821333a39.082667 39.082667 0 0 1 18.261334 23.893333 38.570667 38.570667 0 0 1-3.925334 29.696 5.12 5.12 0 0 0 0 5.802667 179.541333 179.541333 0 0 1 28.501334 49.152 4.778667 4.778667 0 0 0 4.608 3.242667 39.424 39.424 0 0 1 39.253333 39.253333v41.642667A39.253333 39.253333 0 0 1 953.344 213.333333zM119.466667 644.437333a17.066667 17.066667 0 0 0 17.066666 17.066667h705.365334a17.066667 17.066667 0 0 0 17.066666-17.066667v-51.2H119.466667z m5.632-438.101333a5.632 5.632 0 0 0-5.632 5.632V559.104h739.498666V349.866667a39.082667 39.082667 0 0 1-43.178666-17.066667 4.949333 4.949333 0 0 0-5.12-2.218667 175.274667 175.274667 0 0 1-56.661334 0 4.778667 4.778667 0 0 0-5.12 2.218667 39.082667 39.082667 0 0 1-53.589333 14.336l-36.010667-20.821333a38.229333 38.229333 0 0 1-18.261333-23.722667 39.594667 39.594667 0 0 1 3.754667-29.866667 4.608 4.608 0 0 0 0-5.632 178.005333 178.005333 0 0 1-28.501334-49.322666 4.949333 4.949333 0 0 0-4.608-3.242667 39.082667 39.082667 0 0 1-23.210666-7.68zM580.266667 109.056H375.466667l17.066666 63.146667h179.2v-39.082667a39.594667 39.594667 0 0 1 8.533334-24.064z m-261.461334-34.133333h303.786667a187.733333 187.733333 0 0 1 13.312-22.698667H282.794667a39.765333 39.765333 0 0 0 35.84 22.698667z m639.658667 58.197333a5.12 5.12 0 0 0-5.12-5.12 39.424 39.424 0 0 1-36.693333-25.258667 144.384 144.384 0 0 0-22.869334-39.765333 39.424 39.424 0 0 1-3.584-44.373333 4.437333 4.437333 0 0 0 0-3.754667 4.949333 4.949333 0 0 0-2.389333-3.242667L852.309333-8.533333a5.12 5.12 0 0 0-6.997333 2.048 39.424 39.424 0 0 1-40.448 18.944 135.168 135.168 0 0 0-45.397333 0 39.424 39.424 0 0 1-40.448-19.114667 5.290667 5.290667 0 0 0-6.997334-1.877333l-36.010666 20.821333a4.949333 4.949333 0 0 0-2.389334 3.242667 4.437333 4.437333 0 0 0 0 3.754666 39.765333 39.765333 0 0 1-3.584 44.373334 142.506667 142.506667 0 0 0-23.04 39.765333A38.912 38.912 0 0 1 610.986667 128a5.12 5.12 0 0 0-5.12 5.12v41.642667a4.949333 4.949333 0 0 0 5.12 5.12 39.253333 39.253333 0 0 1 36.522666 25.258666 140.117333 140.117333 0 0 0 23.04 39.765334 39.765333 39.765333 0 0 1 3.584 44.373333 4.778667 4.778667 0 0 0 0 3.925333 4.437333 4.437333 0 0 0 2.389334 3.072l36.010666 20.821334a4.778667 4.778667 0 0 0 2.56 0 5.12 5.12 0 0 0 4.266667-2.389334 39.594667 39.594667 0 0 1 40.448-19.114666 135.168 135.168 0 0 0 45.397333 0A39.765333 39.765333 0 0 1 845.312 315.733333a4.949333 4.949333 0 0 0 6.826667 1.706667l36.010666-20.821333a4.437333 4.437333 0 0 0 2.389334-3.072 4.778667 4.778667 0 0 0 0-3.925334 39.253333 39.253333 0 0 1 3.584-44.202666 145.237333 145.237333 0 0 0 22.869333-39.936A39.594667 39.594667 0 0 1 953.344 179.2a4.949333 4.949333 0 0 0 5.12-5.12zM782.165333 231.424a77.482667 77.482667 0 1 1 77.482667-77.482667 77.482667 77.482667 0 0 1-77.482667 77.482667z m0-120.832a43.349333 43.349333 0 1 0 43.349334 43.349333A43.349333 43.349333 0 0 0 782.165333 110.933333z"  horiz-adv-x="1024" />

    
    <glyph glyph-name="fanganguihua" unicode="&#58928;" d="M252.5 368.2m-34.7 0a34.7 34.7 0 1 1 69.4 0 34.7 34.7 0 1 1-69.4 0ZM401.6 540.8m-34.7 0a34.7 34.7 0 1 1 69.4 0 34.7 34.7 0 1 1-69.4 0ZM606.2 424.9m-34.7 0a34.7 34.7 0 1 1 69.4 0 34.7 34.7 0 1 1-69.4 0ZM769.1 585.2m-34.7 0a34.7 34.7 0 1 1 69.4 0 34.7 34.7 0 1 1-69.4 0ZM769.1 629.9c-24.7 0-44.7-20.1-44.7-44.7 0-7.9 2.1-15.3 5.7-21.7l-98.4-98.4c-0.7-0.7-1.2-1.5-1.7-2.3-6.9 4.3-15 6.8-23.7 6.8-13.4 0-25.4-5.9-33.7-15.3l-127.3 76.8c0.7 3.1 1.1 6.3 1.1 9.7 0 24.7-20.1 44.7-44.7 44.7S357 565.4 357 540.8c0-10.8 3.9-20.8 10.3-28.5l-90.5-106.5c-7 4.5-15.3 7.1-24.2 7.1-24.7 0-44.7-20.1-44.7-44.7s20.1-44.7 44.7-44.7 44.7 20.1 44.7 44.7c0 8.5-2.4 16.5-6.5 23.3l91.9 108.1c0.1 0.2 0.3 0.3 0.4 0.5 5.7-2.6 11.9-4 18.6-4 14.2 0 26.8 6.6 35 17l126.5-76.3c-1-3.8-1.6-7.7-1.6-11.8 0-24.7 20.1-44.7 44.7-44.7S651 400.4 651 425c0 9-2.7 17.4-7.3 24.5 0.7 0.4 1.5 1 2.1 1.6l97.7 97.7c7.3-5.1 16.1-8.1 25.7-8.1 24.7 0 44.7 20.1 44.7 44.7s-20.1 44.5-44.8 44.5zM252.5 343.4c-13.6 0-24.7 11.1-24.7 24.7s11.1 24.7 24.7 24.7 24.7-11.1 24.7-24.7-11.1-24.7-24.7-24.7z m149.1 172.7c-13.6 0-24.7 11.1-24.7 24.7s11.1 24.7 24.7 24.7 24.7-11.1 24.7-24.7-11-24.7-24.7-24.7z m204.6-116c-13.6 0-24.7 11.1-24.7 24.7s11.1 24.7 24.7 24.7 24.7-11.1 24.7-24.7-11-24.7-24.7-24.7z m162.9 160.4c-13.6 0-24.7 11.1-24.7 24.7s11.1 24.7 24.7 24.7 24.7-11.1 24.7-24.7-11-24.7-24.7-24.7zM943.3 226.2h-40.8v527c0 9.1-7.4 16.5-16.5 16.5H528.5V816.2c0 8.5-7.4 15.4-16.5 15.4s-16.5-6.9-16.5-15.4v-46.4H134.8c-9.1 0-16.5-7.4-16.5-16.5v-527.1h-38c-9.1 0-16.5-7.4-16.5-16.5V131c0-9.1 7.4-16.5 16.5-16.5H357L236.1-36.8c-5.7-7.1-4.5-17.5 2.6-23.2a16.523 16.523 0 0 1 23.2 2.6l137.3 171.9h224.6l137.3-171.9c3.3-4.1 8.1-6.2 12.9-6.2 3.6 0 7.2 1.2 10.3 3.6 7.1 5.7 8.3 16.1 2.6 23.2L666.1 114.5h277.3c9.1 0 16.5 7.4 16.5 16.5v78.7c-0.1 9.1-7.5 16.5-16.6 16.5z m-792 510.5h718.2v-510.6H151.3V736.7z m775.5-589.2h-830v45.7h830v-45.7zM96.8 193.2h830v-45.7h-830z"  horiz-adv-x="1024" />

    
    <glyph glyph-name="shujukanban" unicode="&#60262;" d="M979.2 737.152a32 32 0 0 1-38.4 23.936l-166.848-38.656a32 32 0 0 1-15.808-53.408L794.56 631.36l-194.56-173.568-101.024 95.68a32 32 0 0 1-45.152-1.152l-216.736-227.264A64 64 0 1 1 288 262.4c0 6.944-1.376 13.472-3.424 19.712l193.536 202.944 99.232-93.952a32 32 0 0 1 43.296-0.64L839.04 585.28l41.504-42.976a32 32 0 0 1 53.92 13.92l44.448 165.408a31.84 31.84 0 0 1 0.288 15.52zM928 445.536a32 32 0 0 1-32-32V160a32 32 0 0 0-32-32H160a32 32 0 0 0-32 32V736a32 32 0 0 0 32 32h530.656a32 32 0 0 1 0 64H160a96 96 0 0 1-96-96v-576a96 96 0 0 1 96-96h704a96 96 0 0 1 96 96v253.536a32 32 0 0 1-32 32zM912 0h-800a32 32 0 0 1 0-64h800a32 32 0 0 1 0 64z"  horiz-adv-x="1024" />

    
    <glyph glyph-name="-kanban" unicode="&#59464;" d="M512.3-105.9c-19 0-34.4 15.4-34.4 34.4V217.4c0 19 15.4 34.4 34.4 34.4s34.4-15.4 34.4-34.4v-288.9c-0.1-19-15.4-34.4-34.4-34.4zM309.9-90.4c-5.2 0-10.5 1.2-15.4 3.7-17 8.6-23.8 29.2-15.2 46.2l130 258c8.6 17 29.3 23.7 46.2 15.2 17-8.6 23.8-29.2 15.2-46.2l-130-258c-6.1-12-18.2-18.9-30.8-18.9zM714.6-90.4c-12.6 0-24.7 6.9-30.7 18.9l-130 258c-8.5 16.9-1.7 37.6 15.2 46.2 16.9 8.5 37.6 1.7 46.2-15.2l130-258c8.5-16.9 1.7-37.6-15.2-46.2-5-2.6-10.3-3.7-15.5-3.7zM66.5 864.2h893v-709.1h-893zM513 864.2h446.5v-709.1H513zM86.5 812.1h852.9v-604.9H86.5zM246 532.8h81.5v-183.3H246zM396.9 583.7h81.5v-234.2h-81.5zM547.7 682.5h81.5v-333h-81.5zM698.5 728.7H780v-379.2h-81.5z"  horiz-adv-x="1024" />

    
    <glyph glyph-name="nb-" unicode="&#58888;" d="M909.56 92.22H869a18.48 18.48 0 0 0 0 37h22.11V617A43.17 43.17 0 0 1 848 660.09h-89.12a18.48 18.48 0 1 0 0 37H848A80.16 80.16 0 0 0 928 617v-506.31a18.48 18.48 0 0 0-18.44-18.47zM471.71 161.56C301.49 161.56 163 300.06 163 470.29c0 84.19 33.27 162.87 93.7 221.53a18.48 18.48 0 0 0 25.74-26.51 269.67 269.67 0 0 1-82.49-195c0-149.85 121.91-271.77 271.76-271.77s271.77 121.9 271.77 271.75a269.66 269.66 0 0 1-82.5 195 18.48 18.48 0 1 0 25.74 26.51c60.42-58.67 93.71-137.34 93.71-221.53 0.01-170.21-138.49-308.71-308.72-308.71zM715 92.22H176a80.16 80.16 0 0 0-80 80.06V678.56A18.48 18.48 0 0 0 114.44 697h76a18.48 18.48 0 1 0 0-37h-57.52v-487.8A43.17 43.17 0 0 1 176 129.17h539a18.48 18.48 0 1 0 0-37zM603 546H331.93a18.48 18.48 0 0 0 0 37H603a18.48 18.48 0 0 0 0-37zM467.49 447.92H331.93a18.48 18.48 0 0 0 0 37h135.56a18.48 18.48 0 0 0 0-37zM471.71 161.56C301.49 161.56 163 300.06 163 470.29c0 84.19 33.27 162.87 93.7 221.53a308.71 308.71 0 0 0 430 0c60.42-58.67 93.71-137.34 93.71-221.53 0.03-170.23-138.47-308.73-308.7-308.73zM282.44 665.31a269.67 269.67 0 0 1-82.49-195c0-149.85 121.91-271.77 271.76-271.77s271.77 121.9 271.77 271.75a271.77 271.77 0 0 1-461 195zM900.13-11a18.43 18.43 0 0 0-13.13 5.43L784.15 97.65a18.48 18.48 0 0 0 26.18 26.08l102.89-103.22A18.48 18.48 0 0 0 900.13-11zM797.24 92.22a18.43 18.43 0 0 0-13.09 5.44L646.77 235.47a18.48 18.48 0 0 0 26.18 26.08l137.38-137.82a18.48 18.48 0 0 0-13.09-31.52z"  horiz-adv-x="1024" />

    
    <glyph glyph-name="zhiliang1" unicode="&#58903;" d="M512-63C265.129-63 65 137.129 65 384V781a50 50 0 0 0 50 50h794a50 50 0 0 0 50-50v-397c0-246.871-200.129-447-447-447z m387 814a20 20 0 0 1-20 20H145a20 20 0 0 1-20-20v-367c0-213.734 173.266-387 387-387s387 173.266 387 387V751zM722 601H332v-390a30 30 0 0 0-60 0V631a30 30 0 0 0 30 30h420a30 30 0 0 0 0-60zM390.219 469H515.25v20H392a30 30 0 0 0 0 60h123.25a30 30 0 0 0 60 0H699a30 30 0 0 0 0-60H575.25v-20h125.031a29.968 29.968 0 0 0 29.969-29.969v-0.062a29.924 29.924 0 0 0-1-7.561V284a30 30 0 0 0-60 0V409h-94v-72.393a130.038 130.038 0 0 0 100.375-126.576h-0.21a29.991 29.991 0 0 0-59.978 0.438c0 0.574 0.055 1.134 0.086 1.7a69.989 69.989 0 0 1-139.945-2.139h-0.225a29.99 29.99 0 1 0-59.631 4.762 130.039 130.039 0 0 0 99.528 121.632V409h-95v-125a30 30 0 0 0-60 0V439.031A29.968 29.968 0 0 0 390.219 469z"  horiz-adv-x="1024" />

    
    <glyph glyph-name="zhiliangfenxi" unicode="&#58974;" d="M928 745.386667h-384V810.666667h-64v-65.28h-384a32.853333 32.853333 0 0 1-32-32.853334v-522.666666a32.426667 32.426667 0 0 1 32-32.426667h384v-51.626667l-152.746667-91.306666 32-57.173334 143.786667 85.333334h19.2l144.213333-85.333334 32 57.173334-154.453333 91.306666v51.626667h384a32.426667 32.426667 0 0 1 32 32.426667V712.533333a32.853333 32.853333 0 0 1-32 32.853334zM896 222.72H128V680.106667h768z m-105.813333 392.106667l42.666666-49.066667-316.586666-276.906667-164.266667 140.373334-118.186667-101.12-42.666666 49.92L352.853333 512l162.986667-140.373333z"  horiz-adv-x="1024" />

    
    <glyph glyph-name="jianhao" unicode="&#58904;" d="M512 896c-285.257143 0-512-226.742857-512-512s226.742857-512 512-512 512 226.742857 512 512-226.742857 512-512 512z m0-950.857143c-241.371429 0-438.857143 197.485714-438.857143 438.857143s197.485714 438.857143 438.857143 438.857143 438.857143-197.485714 438.857143-438.857143-197.485714-438.857143-438.857143-438.857143zM731.428571 420.571429h-438.857142c-21.942857 0-36.571429-14.628571-36.571429-36.571429s14.628571-36.571429 36.571429-36.571429h438.857142c21.942857 0 36.571429 14.628571 36.571429 36.571429s-14.628571 36.571429-36.571429 36.571429z"  horiz-adv-x="1024" />

    
    <glyph glyph-name="shujujicheng" unicode="&#59860;" d="M669.6 639.04a16 16 0 0 1 0 3.84 15.04 15.04 0 0 1-8.48 10.88L523.52 720a16 16 0 0 1-13.76 0l-136.96-65.92a16 16 0 0 1-8.48-10.88 16 16 0 0 1 0-3.84v-186.24L240 394.4a13.28 13.28 0 0 1-6.08-2.24 16 16 0 0 1-7.52-13.44v-195.68a16 16 0 0 1 9.12-14.56l136.96-65.12h0.8a13.6 13.6 0 0 1 12.16 0h0.8l128 61.28 131.52-62.72a15.04 15.04 0 0 1 12.16 0h0.8l136.96 65.28a16 16 0 0 1 9.12 14.4V377.28a17.6 17.6 0 0 1-1.12 5.76 16 16 0 0 1-8.32 10.08l-128 60.64V638.88z m-305.92-496l-104.96 49.92v160L363.68 304z m16 188l-98.88 47.04 99.04 47.2 98.88-47.04z m120.96-138.08l-104.96-50.08V304l104.96 49.92z m0 210.24l-104.96 49.92v160l104.96-50.08zM416 640l100.64 48 100.64-48-100.64-48z m221.6-25.76v-160l-104.96-49.92v160z m0-471.84L532.64 192V352l104.96-50.08z m136.96 49.6l-104.96-49.92v160L774.56 352z m-20 185.92l-100.96-48-100.48 48 100.96 48zM168.48 601.6A407.36 407.36 0 0 0 832 646.56a88.48 88.48 0 0 0 29.28 14.72 439.36 439.36 0 0 1-721.6-46.56l6.72-1.76a91.52 91.52 0 0 0 22.08-11.36zM912 486.4a407.68 407.68 0 0 0-348.16-503.36 88.32 88.32 0 0 0-1.44-32 439.52 439.52 0 0 1 378.72 549.92 91.36 91.36 0 0 0-29.12-14.56zM110.72 435.36a89.92 89.92 0 0 0-22.08 4.32c-3.04 0.96-6.08 2.24-9.12 3.52a440.64 440.64 0 0 1 299.04-472.96l3.84-1.28a91.36 91.36 0 0 0 4.48 31.04v1.44A408.8 408.8 0 0 0 110.72 435.36zM956.32 608a73.12 73.12 0 0 1-42.88 36.96 73.92 73.92 0 0 1-89.12-103.52 74.56 74.56 0 0 1 65.92-40.8A73.92 73.92 0 0 1 956.32 608z m-26.08-46.4a41.92 41.92 0 0 0-52.96-26.72 40.48 40.48 0 0 0-24.32 20.96 41.76 41.76 0 0 0 50.56 58.72A41.44 41.44 0 0 0 928 592.96a42.08 42.08 0 0 0 2.24-32zM119.36 450.88a72.48 72.48 0 0 1 33.44 8 73.6 73.6 0 0 1 36.96 42.88 72.64 72.64 0 0 1-4.32 56.32A73.92 73.92 0 1 1 96 454.56a71.52 71.52 0 0 1 23.36-3.68zM80 537.92a42.24 42.24 0 0 0 40 28.96 46.72 46.72 0 0 0 13.12-2.08A42.08 42.08 0 1 0 80 537.92zM498.88 40a74.08 74.08 0 0 1-46.24-140.64 71.52 71.52 0 0 1 23.04-3.68 74.56 74.56 0 0 1 33.44 8 73.92 73.92 0 0 1-10.24 136.32z m16-83.52a41.92 41.92 0 1 0-26.72 53.12 41.92 41.92 0 0 0 27.52-53.12z"  horiz-adv-x="1024" />

    
    <glyph glyph-name="yunyingshuju" unicode="&#58883;" d="M0.1 896h1024v-1023.8H0.1zM512.1-116.1c-67.5 0-133 13.2-194.7 39.3-59.6 25.2-113.1 61.3-159 107.2-45.9 45.9-82 99.4-107.2 159C25.1 251 11.9 316.6 11.9 384.1s13.2 133 39.3 194.7c25.2 59.6 61.3 113.1 107.2 159s99.4 82 159 107.2c61.7 26.1 127.2 39.3 194.7 39.3s133-13.2 194.7-39.3c59.6-25.2 113.1-61.3 159-107.2 45.9-45.9 82-99.4 107.2-159 26.1-61.7 39.3-127.2 39.3-194.7S999.1 251 973 189.4c-25.2-59.6-61.3-113.1-107.2-159-45.9-45.9-99.4-82-159-107.2-61.6-26.1-127.2-39.3-194.7-39.3z m0 956.1c-61.5 0-121.3-12-177.5-35.8-54.3-23-103.1-55.8-144.9-97.7S114.9 615.8 92 561.6c-23.8-56.2-35.8-115.9-35.8-177.5 0-61.6 12.1-121.3 35.8-177.5 23-54.3 55.8-103.1 97.7-144.9s90.6-74.8 144.9-97.7c56.2-23.8 115.9-35.8 177.5-35.8s121.3 12.1 177.5 35.8c54.3 23 103.1 55.8 144.9 97.7 41.9 41.9 74.8 90.6 97.7 144.9C956 262.8 968 322.5 968 384.1c0 61.6-12.1 121.3-35.8 177.5-23 54.3-55.8 103.1-97.7 144.9-41.9 41.9-90.6 74.8-144.9 97.7C633.4 828 573.7 840 512.1 840zM813 117.2h-20.2V357.7c0 22.7-18.1 40.2-40.5 40.2h-79.4c-22.7 0-40.5-18-40.5-40.2v-240.5h-40.1V678.3c0 22.4-18.1 40.4-40.5 40.4h-79.5c-22.7 0-40.5-18.1-40.5-40.4v-561.1h-40.1V518.3c0 22.1-18.1 39.9-40.5 39.9h-79.5c-22.7 0-40.5-17.9-40.5-39.9v-401.2H211c-10.8 0-19.9-9-19.9-20.1 0-10.7 8.9-20.1 19.9-20.1h602c10.9 0 19.9 9 19.9 20.1 0 10.9-8.9 20.2-19.9 20.2z"  horiz-adv-x="1024" />

    
    <glyph glyph-name="youxiang" unicode="&#58975;" d="M204.8 53.3504a108.8 108.8 0 0 0-108.8 108.8V605.8496c0 60.1088 48.6912 108.8 108.8 108.8h614.4c60.1088 0 108.8-48.6912 108.8-108.8v-443.6992A108.8 108.8 0 0 0 819.2 53.3504H204.8z m0 64h614.4a44.8 44.8 0 0 1 44.8 44.8V605.8496A44.8 44.8 0 0 1 819.2 650.6496H204.8a44.8 44.8 0 0 1-44.8-44.8v-443.6992c0-24.7808 20.0704-44.8 44.8-44.8zM139.5712 508.8256a32 32 0 1 0 28.0576 57.5488l335.9744-163.9936c5.2736-2.56 11.52-2.56 16.7936 0l335.9744 163.9936a32 32 0 1 0 28.0576-57.5488l-335.9232-163.9424c-23.04-11.264-49.9712-11.264-73.0112 0L139.5712 508.8256z"  horiz-adv-x="1024" />

    
    <glyph glyph-name="jicheng" unicode="&#58907;" d="M904.208 299.328l-352.992-156.48c-33.792-14.512-47.248-14.512-78.4 0l-353.024 156.48C101.056 309.136 96 345.456 96 365.28c23.568-13.28 56.704-28.064 55.472-27.312L512 174.064l360.528 163.904c0.624 0.144 32.768 16.128 55.472 27.312 0-20.288-6.4-57.952-23.792-65.952z m0 163.904l-352.992-156.48c-33.792-14.496-47.248-14.496-78.4 0l-353.024 156.48c-27.728 14.512-26.864 60.192 0 77.264l352.992 183.792c31.2 15.36 50.72 16.208 78.4 0l353.024-183.776c26.864-14.512 26-65.312 0-77.28zM512 693.088L151.472 501.872 512 352l360.528 149.824z m0 0c1.92-0.608 2.608-3.008 0 0z m0-682.928l360.528 163.904c0.624 0.144 32.768 16.128 55.472 27.312 0-20.288-6.4-57.952-23.792-65.952l-352.992-156.464c-33.792-14.512-47.248-14.512-78.4 0L119.792 135.424C101.056 145.232 96 181.552 96 201.376c23.568-13.28 56.704-28.064 55.472-27.312z"  horiz-adv-x="1024" />

    
    <glyph glyph-name="jiahao" unicode="&#58918;" d="M1004.8 362.666667H21.333333c-10.666667 0-19.2 8.533333-19.2 19.2V384c0 12.8 8.533333 21.333333 19.2 21.333333h983.466667c10.666667 0 19.2-8.533333 19.2-19.2v-2.133333c2.133333-12.8-8.533333-21.333333-19.2-21.333333zM535.466667 874.666667v-981.333334c0-10.666667-8.533333-21.333333-21.333334-21.333333-10.666667 0-21.333333 10.666667-21.333333 21.333333V874.666667c0 10.666667 8.533333 21.333333 21.333333 21.333333 10.666667 0 21.333333-8.533333 21.333334-21.333333z"  horiz-adv-x="1024" />

    
    <glyph glyph-name="yunyingfenxi" unicode="&#58930;" d="M64.97 791.71m40.73 0l0 0q40.73 0 40.73-40.73l0-733.13q0-40.73-40.73-40.73l0 0q-40.73 0-40.73 40.73l0 733.13q0 40.73 40.73 40.73ZM64.97 58.57m40.73 0l814.59 0q40.73 0 40.73-40.73l0 0q0-40.73-40.73-40.73l-814.59 0q-40.73 0-40.73 40.73l0 0q0 40.73 40.73 40.73ZM227.89 384.41m40.73 0l0 0q40.73 0 40.73-40.73l0-162.92q0-40.73-40.73-40.73l0 0q-40.73 0-40.73 40.73l0 162.92q0 40.73 40.73 40.73ZM431.54 506.6m40.73 0l0 0q40.73 0 40.73-40.73l0-285.11q0-40.73-40.73-40.73l0 0q-40.73 0-40.73 40.73l0 285.11q0 40.73 40.73 40.73ZM635.19 465.87m40.73 0l0 0q40.73 0 40.73-40.73l0-244.38q0-40.73-40.73-40.73l0 0q-40.73 0-40.73 40.73l0 244.38q0 40.73 40.73 40.73ZM838.84 588.06m40.73 0l0 0q40.73 0 40.73-40.73l0-366.57q0-40.73-40.73-40.73l0 0q-40.73 0-40.73 40.73l0 366.57q0 40.73 40.73 40.73ZM268.66 506.6a40.72 40.72 0 0 0-25.49 72.53L446.81 742a40.74 40.74 0 0 0 50.92-63.6L294.08 515.53a40.6 40.6 0 0 0-25.42-8.93zM675.92 588a40.79 40.79 0 0 0-15.12 3l-203.64 81.42a40.73 40.73 0 1 0 30.23 75.65L691 666.61A40.74 40.74 0 0 0 675.92 588zM676 588.06a40.73 40.73 0 0 0-21 75.65L858.61 785.9a40.73 40.73 0 0 0 41.92-69.9L696.88 593.86a40.63 40.63 0 0 0-20.88-5.8z"  horiz-adv-x="1024" />

    
    <glyph glyph-name="icon-test1" unicode="&#58909;" d="M808.6 492.8c0 178.8-129.8 308.5-308.5 308.5-170.1 0-308.5-138.4-308.5-308.5 0-125.6 170.6-338.3 262.3-452.6l6.8-8.4c9.6-12 24-18.9 39.5-18.9 15.4 0 29.8 6.9 39.5 18.9l6.8 8.4c91.5 114.3 262.1 327 262.1 452.6z m-310.1-89.4c-62.9 0-114 51.1-114 114s51.1 114 114 114 114-51.1 114-114-51.1-114-114-114zM500.1 828.2c-184.9 0-335.4-150.4-335.4-335.4 0-135 174.5-352.5 268.2-469.4l6.7-8.4c14.8-18.4 36.8-29 60.4-29s45.6 10.6 60.4 29l6.8 8.4C661 140.3 835.4 357.8 835.4 492.8c0 194.3-141 335.4-335.3 335.4z m0-815.3c-15.4 0-29.8 6.9-39.5 18.9l-6.8 8.4c-91.7 114.3-262.3 327-262.3 452.6 0 170.1 138.4 308.5 308.5 308.5 178.8 0 308.5-129.8 308.5-308.5 0-125.6-170.6-338.3-262.3-452.6l-6.8-8.4c-9.5-12-23.9-18.9-39.3-18.9zM498.5 517.4m-87.2 0a87.2 87.2 0 1 1 174.4 0 87.2 87.2 0 1 1-174.4 0ZM612.5 517.4c0 62.9-51.1 114-114 114s-114-51.1-114-114 51.1-114 114-114 114 51.1 114 114z m-201.2 0c0 48.1 39.1 87.2 87.2 87.2s87.2-39.1 87.2-87.2-39.1-87.2-87.2-87.2-87.2 39.1-87.2 87.2z"  horiz-adv-x="1024" />

    
    <glyph glyph-name="jianhao1" unicode="&#58966;" d="M511.602721-127.001027a511.474051 511.474051 0 1 0 360.629164 148.84694 509.476105 509.476105 0 0 0-360.629164-149.845913z m0 941.032335c-109.887003 0-220.772979-41.956856-304.686691-125.870567-167.827423-168.826396-167.827423-441.545958 0-609.373381s440.546985-167.827423 609.373381 0c167.827423 167.827423 167.827423 440.546985 0 609.373381-83.913711 82.914739-194.799687 124.871594-304.68669 124.871595z m332.657927-763.215185zM780.326392 343.515141H241.880077a39.95891 39.95891 0 0 0 0 79.91782h538.446315a39.95891 39.95891 0 0 0 0-79.91782z"  horiz-adv-x="1026" />

    
    <glyph glyph-name="baogongtongji-" unicode="&#58939;" d="M864 469.36a381.71 381.71 0 0 1-320 232l-0.09 66h159a32 32 0 1 1 0 64H319.57a32 32 0 1 1 0-64h160.32l0.09-66A382.12 382.12 0 0 1 363.3-31.3 382.19 382.19 0 0 1 864 469.36z m-352-466.7c-175.35 0-318 142.65-318 318s142.65 318 318 318 318-142.66 318-318-142.65-318-318-318zM635 486.83L534.66 386.06a70 70 0 1 1 44.22-46.29l101.51 101.9A32 32 0 1 1 635 486.83z"  horiz-adv-x="1024" />

    
    </font>
</defs>
</svg>
